<?xml version="1.0" encoding="UTF-8"?>
<svg width="" height="" version="1.1" viewBox="0 0 700 700" xmlns="http://www.w3.org/2000/svg">
 <g>
  <path fill="#0072b1" d="m208.7 161.2c3.1445-11.891 13.98-20.664 26.855-20.664s23.711 8.7734 26.855 20.664h3.3672v-8.3672c0-16.57 13.445-30.016 30.016-30.016h108.43c16.57 0 30.016 13.445 30.016 30.016v8.3672h3.457c3.2578-11.719 14.012-20.332 26.766-20.332s23.508 8.6094 26.766 20.332h25.441c15.332 0 27.777 12.445 27.777 27.777v218.19c0 15.332-12.445 27.777-27.777 27.777h-333.31c-15.332 0-27.777-12.445-27.777-27.777v-218.19c0-15.332 12.445-27.777 27.777-27.777zm8.625 11.199h-33.973c-9.1484 0-16.574 7.4258-16.574 16.574v218.19c0 9.1484 7.4258 16.574 16.574 16.574h333.31c9.1484 0 16.574-7.4258 16.574-16.574v-218.19c0-9.1484-7.4258-16.574-16.574-16.574h-33.953l-2.2773-8.2031c-1.9883-7.1602-8.543-12.129-15.973-12.129-7.4297 0-13.984 4.9688-15.973 12.129l-2.2773 8.2031h-23.168v-19.566c0-10.387-8.4297-18.816-18.816-18.816h-108.43c-10.387 0-18.816 8.4297-18.816 18.816v19.566h-23.188l-2.2031-8.3359c-1.918-7.2578-8.5234-12.328-16.027-12.328s-14.109 5.0703-16.027 12.328l-2.2031 8.3359z" fill-rule="evenodd"/>
  <path fill="#0072b1" d="m183.34 183.6h333.31c2.9688 0 5.375 2.4062 5.375 5.375v218.19c0 2.9688-2.4062 5.375-5.375 5.375h-333.31c-2.9688 0-5.375-2.4062-5.375-5.375v-218.19c0-2.9688 2.4062-5.375 5.375-5.375zm31.457 168c-2.9688 0-5.375 2.4062-5.375 5.375s2.4062 5.375 5.375 5.375h270.4c2.9688 0 5.375-2.4062 5.375-5.375s-2.4062-5.375-5.375-5.375z"/>
  <path fill="#0072b1" d="m295.79 145.21h108.43c4.207 0 7.6172 3.4102 7.6172 7.6172v36.141c0 4.207-3.4102 7.6172-7.6172 7.6172h-108.43c-4.207 0-7.6172-3.4102-7.6172-7.6172v-36.141c0-4.207 3.4102-7.6172 7.6172-7.6172zm100.81 15.23h-93.195v20.91h93.195z" fill-rule="evenodd"/>
  <path fill="#0072b1" d="m469.83 168.64c0-2.9688-2.4062-5.375-5.375-5.375s-5.375 2.4062-5.375 5.375v20.914c0 2.9688 2.4062 5.375 5.375 5.375s5.375-2.4062 5.375-5.375z"/>
  <path fill="#0072b1" d="m240.93 168.31c0-2.9688-2.4062-5.375-5.375-5.375s-5.375 2.4062-5.375 5.375v20.914c0 2.9688 2.4062 5.375 5.375 5.375s5.375-2.4062 5.375-5.375z"/>
 </g>
</svg>
