<?xml version="1.0" encoding="UTF-8"?>
<svg width="" height="" version="1.1" viewBox="0 0 700 700" xmlns="http://www.w3.org/2000/svg">
 <g>
  <path fill="#0072b1" d="m447.3 148.93v43.926c0 4.8984-3.8516 8.75-8.75 8.75h-227.5c-4.8984 0-8.75-3.8516-8.75-8.75v-43.926c0-4.7266 3.8516-8.75 8.75-8.75h227.5c4.8984 0 8.75 4.0234 8.75 8.75"/>
  <path fill="#0072b1" d="m438.55 236.6h-227.5c-4.8984 0-8.75-3.8516-8.75-8.75 0-4.8984 3.8516-8.75 8.75-8.75h227.5c4.8984 0 8.75 3.8516 8.75 8.75 0 4.8984-3.8516 8.75-8.75 8.75"/>
  <path fill="#0072b1" d="m438.55 271.6h-227.5c-4.8984 0-8.75-3.8516-8.75-8.75 0-4.8984 3.8516-8.75 8.75-8.75h227.5c4.8984 0 8.75 3.8516 8.75 8.75 0 4.8984-3.8516 8.75-8.75 8.75"/>
  <path fill="#0072b1" d="m438.55 306.6h-227.5c-4.8984 0-8.75-3.8516-8.75-8.75 0-4.8984 3.8516-8.75 8.75-8.75h227.5c4.8984 0 8.75 3.8516 8.75 8.75 0 4.8984-3.8516 8.75-8.75 8.75"/>
  <path fill="#0072b1" d="m403.55 341.6h-192.5c-4.8984 0-8.75-3.8516-8.75-8.75 0-4.8984 3.8516-8.75 8.75-8.75h192.5c4.8984 0 8.75 3.8516 8.75 8.75 0 4.8984-3.8516 8.75-8.75 8.75"/>
  <path fill="#0072b1" d="m368.55 376.6h-157.5c-4.8984 0-8.75-3.8516-8.75-8.75 0-4.8984 3.8516-8.75 8.75-8.75h157.5c4.8984 0 8.75 3.8516 8.75 8.75 0 4.8984-3.8516 8.75-8.75 8.75"/>
  <path fill="#0072b1" d="m333.55 411.6h-122.5c-4.8984 0-8.75-3.8516-8.75-8.75 0-4.8984 3.8516-8.75 8.75-8.75h122.5c4.8984 0 8.75 3.8516 8.75 8.75 0 4.8984-3.8516 8.75-8.75 8.75"/>
  <path fill="#0072b1" d="m316.05 446.6h-105c-4.8984 0-8.75-3.8516-8.75-8.75 0-4.8984 3.8516-8.75 8.75-8.75h105c4.8984 0 8.75 3.8516 8.75 8.75 0 4.8984-3.8516 8.75-8.75 8.75"/>
  <path fill="#0072b1" d="m298.55 481.6h-87.5c-4.8984 0-8.75-3.8516-8.75-8.75 0-4.8984 3.8516-8.75 8.75-8.75h87.5c4.8984 0 8.75 3.8516 8.75 8.75 0 4.8984-3.8516 8.75-8.75 8.75"/>
  <path fill="#0072b1" d="m532.18 298.9-24.676-24.676c-3.5-3.5-8.9258-3.5-12.426 0l-12.773 12.773v-225.39c0-4.8984-3.8516-8.75-8.75-8.75h-18.727c-3.8516-15.051-17.5-26.25-33.773-26.25-16.273 0-29.926 11.199-33.773 26.25h-28.699c-3.8516-15.051-17.5-26.25-33.773-26.25-16.273 0-29.926 11.199-33.773 26.25h-28.699c-3.8516-15.051-17.5-26.25-33.773-26.25-16.273 0-29.926 11.199-33.773 26.25h-18.727c-4.8984 0-8.75 3.8516-8.75 8.75l-0.007813 463.75c0 4.8984 3.8516 8.75 8.75 8.75h297.5c4.8984 0 8.75-3.8516 8.75-8.75v-162.75s0-0.875-0.17578-1.2266l50.051-50.051c3.5-3.5 3.5-8.9258 0-12.426m-77.352-228.55c-3.8516 15.051-17.5 26.25-33.773 26.25-4.8984 0-8.75-3.8516-8.75-8.75 0-4.8984 3.8516-8.75 8.75-8.75 6.4766 0 12.074-3.5 15.051-8.75h18.727zm-33.773-26.25c6.4766 0 12.074 3.5 15.051 8.75h-30.102c2.9766-5.25 8.5742-8.75 15.051-8.75m-62.477 26.25c-3.8516 15.051-17.5 26.25-33.773 26.25-4.8984 0-8.75-3.8516-8.75-8.75 0-4.8984 3.8516-8.75 8.75-8.75 6.4766 0 12.074-3.5 15.051-8.75h18.727zm-33.773-26.25c6.4766 0 12.074 3.5 15.051 8.75h-30.102c2.9766-5.25 8.5742-8.75 15.051-8.75m-62.477 26.25c-3.8516 15.051-17.5 26.25-33.773 26.25-4.8984 0-8.75-3.8516-8.75-8.75 0-4.8984 3.8516-8.75 8.75-8.75 6.4766 0 12.074-3.5 15.051-8.75h18.727zm-33.773-26.25c6.4766 0 12.074 3.5 15.051 8.75h-30.102c2.9766-5.25 8.5742-8.75 15.051-8.75m236.25 260.4-125.12 125.12c-0.875 0.875-1.5742 2.1016-2.1016 3.3242l-12.25 37.102c-1.0508 3.1484-0.35156 6.6484 2.1016 8.9258 1.5742 1.75 3.8516 2.625 6.125 2.625 0.875 0 1.9258 0 2.8008-0.52344l37.102-12.25c1.2266-0.52344 2.4492-1.2266 3.3242-2.1016l88.023-88.023v137.9l-280 0.003906v-393.75h280v181.65zm-110.25 152.25-7.1758 2.2734 2.2734-7.1758zm146.82-139.3-12.426-12.426 12.426-12.25 12.25 12.25z"/>
 </g>
</svg>
