<?xml version="1.0" encoding="UTF-8"?>
<svg width="" height="" version="1.1" viewBox="0 0 700 700" xmlns="http://www.w3.org/2000/svg">
 <g>
  <path fill="#96ffdc" d="m568.73 69.066c-33.977-33.977-86.496-38.484-125.37-13.355-16.09-10.438-34.84-16.043-54.461-16.043-26.809 0-52 10.438-70.945 29.395-18.957 18.938-29.395 44.141-29.395 70.938 0.011718 26.797 10.449 52 29.395 70.934l108.89 108.9c4.375 4.3711 10.301 6.8359 16.496 6.8359 6.1992 0 12.121-2.4609 16.496-6.8359l108.9-108.9c39.125-39.102 39.125-102.77 0-141.87z"/>
  <path fill="#96ffdc" d="m443.33 373.33c-18.684 0-36.277-7.293-49.492-20.508l-108.89-108.9c-27.754-27.727-43.051-64.641-43.062-103.9 0-16.141 2.7148-31.828 7.6758-46.691h-62.898c-38.602 0-70 31.402-70 70v303.33c0 38.602 31.398 70 70 70h210c38.602 0 70-31.398 70-70v-97.582c-7.4219 2.6328-15.234 4.25-23.336 4.25z"/>
 </g>
</svg>
