<svg id="Layer_1" data-name="Layer 1" xmlns="http://www.w3.org/2000/svg" viewBox="0 0 174.46 174.02"><defs><style>.cls-1{fill:#cb5933;}.cls-2{fill:#cc7356;}.cls-3{fill:#0099ae;}.cls-4{fill:#35c5d9;}</style></defs><path id="R" class="cls-1" d="M169.91,65H84.23a2.39,2.39,0,0,0,.7,1.69l24.68,24.83h49a2.22,2.22,0,0,1,2.24,2.23h0v39.08a2.24,2.24,0,0,1-2.24,2.24h-5.7l1,1,33.32,33.5V82.31A17.29,17.29,0,0,0,170,65ZM121.7,139.65V161.1H94.76a3.45,3.45,0,0,1-3.45-3.45V109.37L69.68,87.8A2.75,2.75,0,0,0,65,89.74v80A17.31,17.31,0,0,0,82.29,187h86.88Zm5.22-30.73,8.16,8.21v-8.21Z" transform="translate(-12.77 -12.99)"/><path class="cls-2" d="M69.68,87.8l21.63,21.57v24.94L65,131.36V89.75A2.74,2.74,0,0,1,67.73,87,2.79,2.79,0,0,1,69.68,87.8Z" transform="translate(-12.77 -12.99)"/><polygon class="cls-2" points="114.15 95.93 122.31 95.93 122.31 104.14 114.15 95.93"/><path class="cls-2" d="M152.94,135.09h5.56c-1.52.34-3.05.66-4.59,1Z" transform="translate(-12.77 -12.99)"/><path class="cls-2" d="M187.22,82.31v44.43a221,221,0,0,1-27.5,8.07,2.25,2.25,0,0,0,1.16-2V93.76a2.24,2.24,0,0,0-2.23-2.24h-49L84.93,66.69a2.38,2.38,0,0,1-.7-1.69h85.68a17.3,17.3,0,0,1,17.31,17.28Z" transform="translate(-12.77 -12.99)"/><path class="cls-3" d="M110.64,37.41a1.55,1.55,0,0,0-1.1-2.64H83.48L66.76,51.66A1.06,1.06,0,0,1,65,50.91V34.77H44.67A5.72,5.72,0,0,0,39,40.49v62.72a5.71,5.71,0,0,0,5.71,5.71H90.84l.47.42,22.51,22.44a1.93,1.93,0,0,1-1.35,3.29H30.08a17.31,17.31,0,0,1-17.31-17.3V30.3A17.31,17.31,0,0,1,30.08,13h87.68A17.32,17.32,0,0,1,135.08,30.3h0V65H84.23a2.48,2.48,0,0,1,.7-1.69Z" transform="translate(-12.77 -12.99)"/><path class="cls-4" d="M135.08,30.3V65H84.23a2.48,2.48,0,0,1,.7-1.69l25.73-25.9a1.55,1.55,0,0,0-1.1-2.64H83.48L66.76,51.66A1.06,1.06,0,0,1,65,50.91V34.77H44.67A5.72,5.72,0,0,0,39,40.49v44.7a164,164,0,0,1-26.18-6.8V30.31A17.32,17.32,0,0,1,30.08,13h87.68A17.32,17.32,0,0,1,135.08,30.3Z" transform="translate(-12.77 -12.99)"/></svg>