<?xml version="1.0" encoding="utf-8"?>
<!-- Generator: Adobe Illustrator 25.2.0, SVG Export Plug-In . SVG Version: 6.00 Build 0)  -->
<svg version="1.1" id="Layer_1" xmlns="http://www.w3.org/2000/svg" xmlns:xlink="http://www.w3.org/1999/xlink" x="0px" y="0px"
	 viewBox="0 0 850 400" style="enable-background:new 0 0 850 400;" xml:space="preserve">
<style type="text/css">
	.st0{fill:#1C75BC;}
	.st1{fill:none;stroke:#FF0000;stroke-miterlimit:10;}
	.st2{fill:#F15A29;}
</style>
<g>
	<path class="st0" d="M174.3,184.7L174.3,184.7c0,0.5,0.1,1,0.1,1.6c0,5.4-2.6,10.2-6.5,13.3c-2.8,2.2-6.4,3.5-10.2,3.5
		c-9.2,0-16.7-7.5-16.7-16.7c0-0.5,0-1,0.1-1.6v0c0,0,0,0,0,0c0-0.4-0.1-0.7-0.1-1.1v-29.7c-5.1-15.4-19.7-26.4-36.8-26.4
		c-16.4,0-30.4,10.2-36.1,24.6v132.5c0,0.2,0,0.4,0,0.7c0,0.3,0,0.7,0,1c0,9.4-7.6,17-17,17s-17-7.6-17-17c0-1.6,0.2-3.2,0.7-4.7
		V150.2c0-0.1,0-0.1,0-0.2c0.3-1.3,0.6-2.5,1-3.7c8.8-29.5,36.2-50.9,68.5-50.9c30.7,0,56.8,19.3,67,46.4c1.4,3.6,2.4,7.4,3.2,11.3
		v30.5C174.4,184,174.4,184.4,174.3,184.7C174.3,184.7,174.3,184.7,174.3,184.7z"/>
	<path class="st0" d="M242.1,134.9l0.4,8.5c-7.6-9.7-18.9-15.9-31.4-15.9c-13.7,0-25.9,7.4-33.4,18.7c-1.1-4.8-2.9-9.8-5.4-14.8
		c-3.1-6.1-6.9-11.3-11.1-15.5c11.6-11.7,30-19.2,50.6-19.2c18.6,0,35.3,6.1,46.9,15.8C248.8,115,241.6,124.3,242.1,134.9z"/>
	<path class="st0" d="M330.2,161.6l-8-4v-2.7h32.8l20.7,58.8c0,0,3,6.7,5.2,0c2.2-6.7,11.6-58.8,11.6-58.8h32l0,2.7l-8.7,4.7v96.3
		l8.7,4.7v2.7l-39.4-0.7v-2.7l8.7-4.7v-82.2c0,0-0.7-4-2,0c-1.3,4-20.1,89.6-20.1,89.6H369l-36.8-98.3l0.7,48.1
		c0,0-0.7,47.5,18.7,47.5v3.3h-29.4v-3c0,0,6-0.4,6-33.1S330.2,161.6,330.2,161.6z"/>
	<path class="st1" d="M453.2,229.1"/>
	<path class="st0" d="M453.4,228.7l22.3-13.6l11.9-7.3l3.5-2.1c-2.1-15.9-14.3-28.2-29.1-28.2c-11.6,0-21.6,7.5-26.4,18.5
		c-4,7.3-6.4,16.4-6.4,26.3c0,23.6,13.5,42.8,30.1,42.8c12.6,0,23.5-11.1,27.9-26.8c-0.6-0.1-1.3-0.2-1.8-0.3
		c-0.4-0.1-0.8-0.2-1.2-0.3c-0.8,2-1.8,3.8-3.2,5.3c-2.9,3.3-7,5.4-11.6,5.4c-4.4,0-8.3-1.9-11.2-5c-3-3.1-4.8-7.5-4.8-12.4
		c0-0.6,0-1.2,0.1-1.7L453.4,228.7z M452.5,225.1c0,0-3.3-33.9,12.7-42.8c0.8-0.5,1.7-0.8,2.6-0.9c3.3-0.4,6.5,1.4,7.5,4.9
		c0.7,2.4,0.2,5.6-2.1,9.4C469.9,201,452.5,225.1,452.5,225.1z"/>
	<path class="st0" d="M526.1,182.3c2.6,0,4.7,10.2,4.7,22.7c0,12.6-2.1,22.7-4.7,22.7c-2.6,0-4.7-10.2-4.7-22.7
		C521.4,192.5,523.5,182.3,526.1,182.3z M558.1,256L558.1,256c-0.6-15.6-14-20.9-31.3-20.9c-1.1,0-17.4-0.7-16-6
		c0,0,0.3-1.3,1.7-1.6c4.1,2.3,8.9,3.6,14,3.6c14.7,0,26.8-10.9,27.7-24.7c0-0.6,0.1-1.1,0.1-1.7c0-0.9,0-1.7-0.1-2.5
		c-0.4-4.3-2-8.3-4.3-11.8c-1.7-2.5-3.8-4.7-6.2-6.5c-1.2-0.9-2.4-1.7-3.7-2.3c-0.5-0.3-1-0.5-1.5-0.7c-3.6-1.6-7.6-2.5-11.9-2.5
		c-15.3,0-27.7,11.8-27.7,26.4c0,9.2,5,17.3,12.5,22.1c-3.7,3.8-12.7,13.5-15.8,21.3v6.5c0,0.3,0,0.7,0,1c0.5,0,5.2,0.2,10.9,0.5
		c3.4,0.2,7.1,0.4,10.5,0.7c5.5,0.5,10,1.1,12.2,1.9c8.7,3,15.9,5.5,16.4,11.5c0,0.3,0,0.5,0,0.8c0,1.4-0.3,2.7-1,3.9
		c-1.8,3.6-6,6.4-11.3,7.7c0,0-7.2,1.9-11.5,2.1c-17,0.7-20.4-4.1-20.4-10.7c0-0.2,0-2,2-6.5c0.3-0.7,3.5-6.5,1.3-6.9
		c-1.4-0.3-4.1,0.4-6.6,1.9c-3.4,2.1-6.7,5.6-7.6,7.5c-1.2,2.5-1.6,5.1-0.9,7.5c2.4,9.7,19.5,13.9,38.2,9.2
		c17.3-4.3,27.8-15.5,29.7-23.9C557.9,261.2,558.1,256.6,558.1,256z"/>
	<path class="st0" d="M567.8,175.8l-9.1,11.9c-0.2,0.3-0.4,0.5-0.7,0.8c-0.8-6.9-5.1-12.1-10.2-12.1c-0.9,0-1.8,0.2-2.6,0.5
		c-2.1,0.8-4,2.5-5.4,4.8c-0.5-0.3-1-0.5-1.5-0.7c2-7,7.3-12.2,13.8-13.1c0.7-0.1,1.4-0.2,2.1-0.2
		C559.8,167.6,564.8,170.8,567.8,175.8z"/>
	<path class="st0" d="M619,257.8l-0.7-62.2c0,0-1.3-19.4-28.7-16c-27.4,3.3-21.8,27.5-21.8,27.5l20.5,6.6c0,0,3.3,0.7,1.3-2.7
		c-2-3.3-6.7-16-4.7-22.1c2-6,6-7.4,6-7.4s7.4-2,6,8.7l0.2,24.3c0,0-0.8,4.4-12.2,8.4c-11.4,4-15.4,13.4-15.4,13.4s-6,13.4,2,24.1
		c8,10.7,18.7,4,18.7,4s5.3-3.3,7.4-7.4v8.2l30.1-0.1v-2.4L619,257.8z M597.5,254.5c0,0-12.5,5.3-10.6-12.7
		c1.3-12.7,10.6-24.5,10.6-24.5V254.5z"/>
	<path class="st2" d="M281.4,133.1c0,0,0,92.8,0,123.7c0,15.3-5.1,29.4-13.6,40.9c-12.8,17.2-33.5,28.3-56.9,28.3
		c-26.6,0-49.8-14.5-61.8-35.9c-4.1-7.2-7.4-15.2-8-23.8c-0.6-8,0-31.9,0-31.9c0-7.2,4.6-13.3,11-15.7c1.8-0.7,3.7-1,5.7-1
		c4.6,0,8.8,1.9,11.8,4.9c3,3,4.9,7.2,4.9,11.8c0,0-1.3,20.1,2,34.8c3.3,14.4,18,23.4,33.8,23.4c18.4,0,37.1-13.4,38.4-29.5
		c2.6-31.2-1.3-96.8,0-129.9c0.4-9,7.4-16.4,16.4-16.4c4.5,0,8.6,1.8,11.6,4.8C279.5,124.5,281.4,128.6,281.4,133.1z"/>
	<circle class="st2" cx="264" cy="90" r="16"/>
	<path class="st2" d="M651.1,162.2l-8.7-4.7v-3.1h39.3v3.2l-8.4,4.6l-0.8,98.3c0,0,0.7,26.1-23.4,31.4
		c-24.1,5.3-24.7-16.7-24.7-16.7s0-4.7,0-5.2c0-2.1,14.7-4.8,16.7-4.8c1.3,0,2.7,1.3-0.7,5.3s-3.5,11.6-2.7,15.4
		c0.5,2.5,4.7,8.7,10,0C654.2,275.5,651.1,162.2,651.1,162.2z"/>
	<path class="st2" d="M714.6,179.6c-17.4,0-31.4,19.3-31.4,43.1s14.1,43.1,31.4,43.1c17.4,0,31.4-19.3,31.4-43.1
		S732,179.6,714.6,179.6z M714.6,262.5c-4.4,0-8-17.5-8-39.1s3.6-39.1,8-39.1s8,17.5,8,39.1S719.1,262.5,714.6,262.5z"/>
	<path class="st2" d="M804.9,183c-18.1-12-30.1,7.4-30.1,7.4s0.7-31.4,0.6-37.4c-0.1-6-3.2-6.7-3.2-6.7l-24.1,0.2v2.5l5.3,4
		c0,0-0.7,99.5-0.7,107.6c0,3.3,0.5,7.5,2,6.7c2.5-1.4,7.4-4.7,10.7-4.7c5.2,0,6.7,3.3,16.6,5.4c26.2,5.5,31.6-26.8,31.6-26.8
		S822.9,195,804.9,183z M784.8,261.8c-0.3,0.2-2,1.3-4,1.3c-7,0-6-6.7-6-10.7l0.7-55c0-3.4,2.3-6.9,4-8.6s3.3-2,5.3-1.3
		c4.9,1.6,8,16.1,8,36.8C792.8,243.3,789.4,259.3,784.8,261.8z"/>
</g>
</svg>
