<?xml version="1.0" encoding="UTF-8"?>
<svg width="" height="" version="1.1" viewBox="0 0 700 700" xmlns="http://www.w3.org/2000/svg" xmlns:xlink="http://www.w3.org/1999/xlink">
 <defs>
  <symbol id="u" overflow="visible">
   <path d="m18.766-1.125c-0.96875 0.5-1.9805 0.875-3.0312 1.125-1.043 0.25781-2.1367 0.39062-3.2812 0.39062-3.3984 0-6.0898-0.94531-8.0781-2.8438-1.9922-1.9062-2.9844-4.4844-2.9844-7.7344 0-3.2578 0.99219-5.8359 2.9844-7.7344 1.9883-1.9062 4.6797-2.8594 8.0781-2.8594 1.1445 0 2.2383 0.13281 3.2812 0.39062 1.0508 0.25 2.0625 0.625 3.0312 1.125v4.2188c-0.98047-0.65625-1.9453-1.1406-2.8906-1.4531-0.94922-0.3125-1.9492-0.46875-3-0.46875-1.875 0-3.3516 0.60547-4.4219 1.8125-1.0742 1.1992-1.6094 2.8555-1.6094 4.9688 0 2.1055 0.53516 3.7617 1.6094 4.9688 1.0703 1.1992 2.5469 1.7969 4.4219 1.7969 1.0508 0 2.0508-0.14844 3-0.45312 0.94531-0.3125 1.9102-0.80078 2.8906-1.4688z"/>
  </symbol>
  <symbol id="c" overflow="visible">
   <path d="m13.734-11.141c-0.4375-0.19531-0.87109-0.34375-1.2969-0.4375-0.41797-0.10156-0.83984-0.15625-1.2656-0.15625-1.2617 0-2.2305 0.40625-2.9062 1.2188-0.67969 0.80469-1.0156 1.9531-1.0156 3.4531v7.0625h-4.8906v-15.312h4.8906v2.5156c0.625-1 1.3438-1.7266 2.1562-2.1875 0.82031-0.46875 1.8008-0.70312 2.9375-0.70312 0.16406 0 0.34375 0.011719 0.53125 0.03125 0.19531 0.011719 0.47656 0.039062 0.84375 0.078125z"/>
  </symbol>
  <symbol id="b" overflow="visible">
   <path d="m17.641-7.7031v1.4062h-11.453c0.125 1.1484 0.53906 2.0078 1.25 2.5781 0.70703 0.57422 1.7031 0.85938 2.9844 0.85938 1.0312 0 2.082-0.14844 3.1562-0.45312 1.082-0.3125 2.1914-0.77344 3.3281-1.3906v3.7656c-1.1562 0.4375-2.3125 0.76562-3.4688 0.98438-1.1562 0.22656-2.3125 0.34375-3.4688 0.34375-2.7734 0-4.9297-0.70312-6.4688-2.1094-1.5312-1.4062-2.2969-3.3789-2.2969-5.9219 0-2.5 0.75391-4.4609 2.2656-5.8906 1.5078-1.4375 3.582-2.1562 6.2188-2.1562 2.4062 0 4.332 0.73047 5.7812 2.1875 1.4453 1.4492 2.1719 3.3828 2.1719 5.7969zm-5.0312-1.625c0-0.92578-0.27344-1.6719-0.8125-2.2344-0.54297-0.57031-1.25-0.85938-2.125-0.85938-0.94922 0-1.7188 0.26562-2.3125 0.79688s-0.96484 1.2969-1.1094 2.2969z"/>
  </symbol>
  <symbol id="e" overflow="visible">
   <path d="m9.2188-6.8906c-1.0234 0-1.793 0.17188-2.3125 0.51562-0.51172 0.34375-0.76562 0.85547-0.76562 1.5312 0 0.625 0.20703 1.1172 0.625 1.4688 0.41406 0.34375 0.98828 0.51562 1.7188 0.51562 0.92578 0 1.7031-0.32812 2.3281-0.98438 0.63281-0.66406 0.95312-1.4922 0.95312-2.4844v-0.5625zm7.4688-1.8438v8.7344h-4.9219v-2.2656c-0.65625 0.92969-1.3984 1.6055-2.2188 2.0312-0.82422 0.41406-1.8242 0.625-3 0.625-1.5859 0-2.8711-0.45703-3.8594-1.375-0.99219-0.92578-1.4844-2.1289-1.4844-3.6094 0-1.7891 0.61328-3.1016 1.8438-3.9375 1.2383-0.84375 3.1797-1.2656 5.8281-1.2656h2.8906v-0.39062c0-0.76953-0.30859-1.332-0.92188-1.6875-0.61719-0.36328-1.5703-0.54688-2.8594-0.54688-1.0547 0-2.0312 0.10547-2.9375 0.3125-0.89844 0.21094-1.7305 0.52344-2.5 0.9375v-3.7344c1.0391-0.25 2.0859-0.44141 3.1406-0.57812 1.0625-0.13281 2.125-0.20312 3.1875-0.20312 2.7578 0 4.75 0.54688 5.9688 1.6406 1.2266 1.0859 1.8438 2.8555 1.8438 5.3125z"/>
  </symbol>
  <symbol id="a" overflow="visible">
   <path d="m7.7031-19.656v4.3438h5.0469v3.5h-5.0469v6.5c0 0.71094 0.14062 1.1875 0.42188 1.4375s0.83594 0.375 1.6719 0.375h2.5156v3.5h-4.1875c-1.9375 0-3.3125-0.39844-4.125-1.2031-0.80469-0.8125-1.2031-2.1797-1.2031-4.1094v-6.5h-2.4219v-3.5h2.4219v-4.3438z"/>
  </symbol>
  <symbol id="l" overflow="visible">
   <path d="m12.766-13.078v-8.2031h4.9219v21.281h-4.9219v-2.2188c-0.66797 0.90625-1.4062 1.5703-2.2188 1.9844s-1.7578 0.625-2.8281 0.625c-1.8867 0-3.4336-0.75-4.6406-2.25-1.2109-1.5-1.8125-3.4258-1.8125-5.7812 0-2.3633 0.60156-4.2969 1.8125-5.7969 1.207-1.5 2.7539-2.25 4.6406-2.25 1.0625 0 2 0.21484 2.8125 0.64062 0.82031 0.42969 1.5664 1.0859 2.2344 1.9688zm-3.2188 9.9219c1.0391 0 1.8359-0.37891 2.3906-1.1406 0.55078-0.76953 0.82812-1.8828 0.82812-3.3438 0-1.457-0.27734-2.5664-0.82812-3.3281-0.55469-0.76953-1.3516-1.1562-2.3906-1.1562-1.043 0-1.8398 0.38672-2.3906 1.1562-0.55469 0.76172-0.82812 1.8711-0.82812 3.3281 0 1.4609 0.27344 2.5742 0.82812 3.3438 0.55078 0.76172 1.3477 1.1406 2.3906 1.1406z"/>
  </symbol>
  <symbol id="k" overflow="visible">
   <path d="m10.5-3.1562c1.0508 0 1.8516-0.37891 2.4062-1.1406 0.55078-0.76953 0.82812-1.8828 0.82812-3.3438 0-1.457-0.27734-2.5664-0.82812-3.3281-0.55469-0.76953-1.3555-1.1562-2.4062-1.1562-1.0547 0-1.8594 0.38672-2.4219 1.1562-0.55469 0.77344-0.82812 1.8828-0.82812 3.3281 0 1.4492 0.27344 2.5586 0.82812 3.3281 0.5625 0.77344 1.3672 1.1562 2.4219 1.1562zm-3.25-9.9219c0.67578-0.88281 1.4219-1.5391 2.2344-1.9688 0.82031-0.42578 1.7656-0.64062 2.8281-0.64062 1.8945 0 3.4453 0.75 4.6562 2.25 1.207 1.5 1.8125 3.4336 1.8125 5.7969 0 2.3555-0.60547 4.2812-1.8125 5.7812-1.2109 1.5-2.7617 2.25-4.6562 2.25-1.0625 0-2.0078-0.21094-2.8281-0.625-0.8125-0.42578-1.5586-1.0859-2.2344-1.9844v2.2188h-4.8906v-21.281h4.8906z"/>
  </symbol>
  <symbol id="j" overflow="visible">
   <path d="m0.34375-15.312h4.8906l4.125 10.391 3.5-10.391h4.8906l-6.4375 16.766c-0.64844 1.6953-1.4023 2.8828-2.2656 3.5625-0.86719 0.6875-2 1.0312-3.4062 1.0312h-2.8438v-3.2188h1.5312c0.83203 0 1.4375-0.13672 1.8125-0.40625 0.38281-0.26172 0.67969-0.73047 0.89062-1.4062l0.14062-0.42188z"/>
  </symbol>
  <symbol id="i" overflow="visible">
   <path d="m2.5781-20.406h5.25v20.406h-5.25z"/>
  </symbol>
  <symbol id="h" overflow="visible">
   <path d="m12.422-21.281v3.2188h-2.7031c-0.6875 0-1.1719 0.125-1.4531 0.375-0.27344 0.25-0.40625 0.6875-0.40625 1.3125v1.0625h4.1875v3.5h-4.1875v11.812h-4.8906v-11.812h-2.4375v-3.5h2.4375v-1.0625c0-1.6641 0.46094-2.8984 1.3906-3.7031 0.92578-0.80078 2.3672-1.2031 4.3281-1.2031z"/>
  </symbol>
  <symbol id="t" overflow="visible">
   <path d="m2.3594-21.281h4.8906v11.594l5.625-5.625h5.6875l-7.4688 7.0312 8.0625 8.2812h-5.9375l-5.9688-6.3906v6.3906h-4.8906z"/>
  </symbol>
  <symbol id="g" overflow="visible">
   <path d="m2.3594-15.312h4.8906v15.312h-4.8906zm0-5.9688h4.8906v4h-4.8906z"/>
  </symbol>
  <symbol id="f" overflow="visible">
   <path d="m17.75-9.3281v9.3281h-4.9219v-7.1406c0-1.3203-0.03125-2.2344-0.09375-2.7344s-0.16797-0.86719-0.3125-1.1094c-0.1875-0.3125-0.44922-0.55469-0.78125-0.73438-0.32422-0.17578-0.69531-0.26562-1.1094-0.26562-1.0234 0-1.8242 0.39844-2.4062 1.1875-0.58594 0.78125-0.875 1.8711-0.875 3.2656v7.5312h-4.8906v-15.312h4.8906v2.2344c0.73828-0.88281 1.5195-1.5391 2.3438-1.9688 0.83203-0.42578 1.75-0.64062 2.75-0.64062 1.7695 0 3.1133 0.54688 4.0312 1.6406 0.91406 1.0859 1.375 2.6562 1.375 4.7188z"/>
  </symbol>
  <symbol id="d" overflow="visible">
   <path d="m9.6406-12.188c-1.0859 0-1.9141 0.39062-2.4844 1.1719-0.57422 0.78125-0.85938 1.9062-0.85938 3.375s0.28516 2.5938 0.85938 3.375c0.57031 0.77344 1.3984 1.1562 2.4844 1.1562 1.0625 0 1.875-0.38281 2.4375-1.1562 0.57031-0.78125 0.85938-1.9062 0.85938-3.375s-0.28906-2.5938-0.85938-3.375c-0.5625-0.78125-1.375-1.1719-2.4375-1.1719zm0-3.5c2.6328 0 4.6914 0.71484 6.1719 2.1406 1.4766 1.418 2.2188 3.3867 2.2188 5.9062 0 2.5117-0.74219 4.4805-2.2188 5.9062-1.4805 1.418-3.5391 2.125-6.1719 2.125-2.6484 0-4.7148-0.70703-6.2031-2.125-1.4922-1.4258-2.2344-3.3945-2.2344-5.9062 0-2.5195 0.74219-4.4883 2.2344-5.9062 1.4883-1.4258 3.5547-2.1406 6.2031-2.1406z"/>
  </symbol>
  <symbol id="s" overflow="visible">
   <path d="m16.547-12.766c0.61328-0.94531 1.3477-1.6719 2.2031-2.1719 0.85156-0.5 1.7891-0.75 2.8125-0.75 1.7578 0 3.0977 0.54688 4.0156 1.6406 0.92578 1.0859 1.3906 2.6562 1.3906 4.7188v9.3281h-4.9219v-7.9844-0.35938c0.007813-0.13281 0.015625-0.32031 0.015625-0.5625 0-1.082-0.16406-1.8633-0.48438-2.3438-0.3125-0.48828-0.82422-0.73438-1.5312-0.73438-0.92969 0-1.6484 0.38672-2.1562 1.1562-0.51172 0.76172-0.77344 1.8672-0.78125 3.3125v7.5156h-4.9219v-7.9844c0-1.6953-0.14844-2.7852-0.4375-3.2656-0.29297-0.48828-0.8125-0.73438-1.5625-0.73438-0.9375 0-1.6641 0.38672-2.1719 1.1562-0.51172 0.76172-0.76562 1.8594-0.76562 3.2969v7.5312h-4.9219v-15.312h4.9219v2.2344c0.60156-0.86328 1.2891-1.5156 2.0625-1.9531 0.78125-0.4375 1.6406-0.65625 2.5781-0.65625 1.0625 0 2 0.25781 2.8125 0.76562 0.8125 0.51172 1.4258 1.2305 1.8438 2.1562z"/>
  </symbol>
  <symbol id="r" overflow="visible">
   <path d="m17.75-9.3281v9.3281h-4.9219v-7.1094c0-1.3438-0.03125-2.2656-0.09375-2.7656s-0.16797-0.86719-0.3125-1.1094c-0.1875-0.3125-0.44922-0.55469-0.78125-0.73438-0.32422-0.17578-0.69531-0.26562-1.1094-0.26562-1.0234 0-1.8242 0.39844-2.4062 1.1875-0.58594 0.78125-0.875 1.8711-0.875 3.2656v7.5312h-4.8906v-21.281h4.8906v8.2031c0.73828-0.88281 1.5195-1.5391 2.3438-1.9688 0.83203-0.42578 1.75-0.64062 2.75-0.64062 1.7695 0 3.1133 0.54688 4.0312 1.6406 0.91406 1.0859 1.375 2.6562 1.375 4.7188z"/>
  </symbol>
  <symbol id="q" overflow="visible">
   <path d="m2.5781-20.406h5.875l7.4219 14v-14h4.9844v20.406h-5.875l-7.4219-14v14h-4.9844z"/>
  </symbol>
  <symbol id="p" overflow="visible">
   <path d="m2.1875-5.9688v-9.3438h4.9219v1.5312c0 0.83594-0.007813 1.875-0.015625 3.125-0.011719 1.25-0.015625 2.0859-0.015625 2.5 0 1.2422 0.03125 2.1328 0.09375 2.6719 0.070313 0.54297 0.17969 0.93359 0.32812 1.1719 0.20703 0.32422 0.47266 0.57422 0.79688 0.75 0.32031 0.16797 0.69141 0.25 1.1094 0.25 1.0195 0 1.8203-0.39062 2.4062-1.1719 0.58203-0.78125 0.875-1.8672 0.875-3.2656v-7.5625h4.8906v15.312h-4.8906v-2.2188c-0.74219 0.89844-1.5234 1.5586-2.3438 1.9844-0.82422 0.41406-1.7344 0.625-2.7344 0.625-1.7617 0-3.1055-0.53906-4.0312-1.625-0.92969-1.082-1.3906-2.6602-1.3906-4.7344z"/>
  </symbol>
  <symbol id="o" overflow="visible">
   <path d="m2.5781-20.406h8.7344c2.5938 0 4.582 0.57812 5.9688 1.7344 1.3945 1.1484 2.0938 2.7891 2.0938 4.9219 0 2.1367-0.69922 3.7812-2.0938 4.9375-1.3867 1.1562-3.375 1.7344-5.9688 1.7344h-3.4844v7.0781h-5.25zm5.25 3.8125v5.7031h2.9219c1.0195 0 1.8047-0.25 2.3594-0.75 0.5625-0.5 0.84375-1.2031 0.84375-2.1094 0-0.91406-0.28125-1.6172-0.84375-2.1094-0.55469-0.48828-1.3398-0.73438-2.3594-0.73438z"/>
  </symbol>
  <symbol id="n" overflow="visible">
   <path d="m2.3594-15.312h4.8906v15.031c0 2.0508-0.49609 3.6172-1.4844 4.7031-0.98047 1.082-2.4062 1.625-4.2812 1.625h-2.4219v-3.2188h0.85938c0.92578 0 1.5625-0.21094 1.9062-0.625 0.35156-0.41797 0.53125-1.2461 0.53125-2.4844zm0-5.9688h4.8906v4h-4.8906z"/>
  </symbol>
  <symbol id="m" overflow="visible">
   <path d="m14.719-14.828v3.9844c-0.65625-0.45703-1.3242-0.79688-2-1.0156-0.66797-0.21875-1.3594-0.32812-2.0781-0.32812-1.3672 0-2.4336 0.40234-3.2031 1.2031-0.76172 0.79297-1.1406 1.9062-1.1406 3.3438 0 1.4297 0.37891 2.543 1.1406 3.3438 0.76953 0.79297 1.8359 1.1875 3.2031 1.1875 0.75781 0 1.4844-0.10938 2.1719-0.32812 0.6875-0.22656 1.3203-0.56641 1.9062-1.0156v4c-0.76172 0.28125-1.5391 0.48828-2.3281 0.625-0.78125 0.14453-1.5742 0.21875-2.375 0.21875-2.7617 0-4.9219-0.70703-6.4844-2.125-1.5547-1.4141-2.3281-3.3828-2.3281-5.9062 0-2.5312 0.77344-4.5039 2.3281-5.9219 1.5625-1.4141 3.7227-2.125 6.4844-2.125 0.80078 0 1.5938 0.074219 2.375 0.21875 0.78125 0.13672 1.5547 0.35156 2.3281 0.64062z"/>
  </symbol>
 </defs>
 <g>
  <path fill="#2776b6" d="m594.09 159.66-21.637-8.8477-8.8438-21.637c-0.70703-1.7383-2.2383-3.0039-4.0781-3.375-1.8398-0.36719-3.7383 0.20703-5.0664 1.5312l-35.902 35.918v-13.266c0-1.4844-0.58984-2.9102-1.6406-3.9609-1.0469-1.0469-2.4727-1.6367-3.957-1.6367h-33.18v-12.43c0-3.8047-1.5078-7.4531-4.1992-10.148-2.6875-2.6914-6.3398-4.207-10.145-4.207h-64.191v-4.3008c-0.007813-3.8438-1.5352-7.5312-4.2539-10.25s-6.4023-4.25-10.246-4.2539h-28.078v-19.836c0-17.215-9.1836-33.121-24.09-41.727s-33.273-8.6055-48.18 0-24.09 24.512-24.09 41.727v19.836h-28.082c-3.8477 0.003906-7.5312 1.5352-10.25 4.2539s-4.25 6.4023-4.2539 10.25v4.3008h-64.188c-3.8008 0-7.4492 1.5117-10.137 4.1992s-4.2031 6.332-4.207 10.137v12.426h-33.16c-3.0938 0-5.6016 2.5078-5.6016 5.5977v345.97c0 1.4844 0.58984 2.9102 1.6406 3.9609 1.0508 1.0508 2.4727 1.6406 3.9609 1.6406h33.164v13.305h-0.003906c0 3.8086 1.5078 7.457 4.1992 10.152 2.6875 2.6953 6.3359 4.207 10.145 4.2109h309.9c3.8047-0.003907 7.4492-1.5156 10.137-4.2031 2.6914-2.6875 4.2031-6.3359 4.207-10.137v-13.305h33.18c1.4844 0 2.9102-0.59375 3.957-1.6406 1.0508-1.0508 1.6406-2.4766 1.6406-3.9609v-50.648c48.719-63.234 43.559-161.54-13.047-219.62l1.9727-1.9648 26.285 4.0273c1.7617 0.27344 3.5508-0.3125 4.8086-1.5742l57.352-57.367c1.3086-1.332 1.8672-3.2266 1.5-5.0586-0.36719-1.832-1.6211-3.3594-3.3438-4.0859zm-128.65-30.859c1.7344 0 3.1406 1.4023 3.1406 3.1367v63.91c-5.3203-3.2109-10.812-6.1328-16.449-8.7461v-36.23c0-1.4883-0.58984-2.9102-1.6406-3.9609-1.0508-1.0508-2.4766-1.6406-3.9609-1.6406h-45.281v-16.469zm-244.65 27.668c1.0742 2.6875 2.9297 4.9961 5.3242 6.6211s5.2227 2.4961 8.1172 2.5039h152.52c2.8945-0.007812 5.7227-0.87891 8.1172-2.5078 2.3945-1.625 4.25-3.9297 5.3242-6.6172h40.738v25.945c-198.45-68.594-325.07 195.39-150.45 307.94h-110.43v-333.88zm52.723-77.508c1.7422-48.961 72.238-48.926 73.961 0v19.828h-73.961zm-42.559 34.34c0.003906-1.8242 1.4805-3.3008 3.3047-3.3047h152.49c1.8242 0.003906 3.3008 1.4805 3.3008 3.3047v37.789c0 1.8203-1.4766 3.3008-3.3008 3.3008h-152.52c-1.8242 0-3.3047-1.4766-3.3047-3.3008zm-117.32 377.05v-334.77h27.562v334.77zm354.95 24.504v0.003906c0 1.7344-1.4062 3.1406-3.1406 3.1406h-309.9c-1.7344 0-3.1406-1.4062-3.1406-3.1406v-382.9c0-1.7305 1.4062-3.1328 3.1406-3.1328h64.188v16.445h-45.277c-3.0938 0-5.6016 2.5078-5.6016 5.6016v345.08c0 1.4844 0.59375 2.9102 1.6406 3.9609 1.0508 1.0469 2.4766 1.6406 3.9609 1.6406h137.7c25.082 10.641 52.316 15.215 79.496 13.355 27.18-1.8594 53.539-10.102 76.934-24.059zm38.781-24.504h-27.578v-6.9023c10.035-7.1445 19.281-15.34 27.578-24.445zm-2.8906-248.88c85.832 103.76 10.199 263.32-124.53 262.81-42.656-0.10938-83.535-17.105-113.7-47.266-30.164-30.164-47.164-71.043-47.277-113.7-0.46484-134.74 159.04-210.36 262.83-124.52 2.3906 1.9648 5.9219 1.6172 7.8867-0.77344 1.9648-2.3906 1.6172-5.918-0.77344-7.8828-2.9609-2.4297-6.0195-4.7227-9.1211-6.9375v-47.602h27.578v18.867l-10.246 10.246c-1.2656 1.2617-1.8516 3.0469-1.582 4.8125l4.0312 26.32-5.8477 5.8398-117.73 117.67c-1.0781 1.043-1.6953 2.4766-1.707 3.9805-0.015625 1.5 0.57812 2.9453 1.6406 4.0078 1.0586 1.0625 2.5039 1.6523 4.0078 1.6406 1.5-0.011719 2.9336-0.62891 3.9766-1.7109l27.312-27.312c19.488 24.711 0.19141 63.09-31.27 62.434v0.003906c-11.738-0.019532-22.848-5.3125-30.258-14.414-7.4102-9.1055-10.34-21.055-7.9766-32.555 2.3672-11.496 9.7695-21.324 20.172-26.766 10.402-5.4414 22.695-5.9219 33.488-1.3047 2.8438 1.2188 6.1367-0.097656 7.3555-2.9375 1.2227-2.8438-0.09375-6.1367-2.9336-7.3555-13.891-5.9688-29.73-5.3711-43.129 1.6289-13.402 6.9961-22.945 19.648-25.992 34.457-3.043 14.805 0.73438 30.199 10.285 41.914 9.5547 11.719 23.871 18.516 38.988 18.516 41.441 0.55859 65.711-49.699 39.258-81.625l20.875-20.875c44.922 50.434 7.4141 132.51-60.137 131.95h-0.003906c-21.133-0.027344-41.395-8.4336-56.34-23.375-14.945-14.941-23.355-35.203-23.387-56.336-0.82812-62.766 72.48-101.92 124.05-66.246v-0.003907c2.5664 1.7188 6.0391 1.0352 7.7617-1.5234 1.7227-2.5625 1.0508-6.0352-1.5039-7.7656-23.93-16.027-54.039-19.77-81.164-10.086-27.121 9.6836-48.055 31.645-56.426 59.199-8.375 27.559-3.1953 57.449 13.961 80.586 17.152 23.133 44.254 36.773 73.055 36.766 77.41 0.63281 120.05-93.734 68.051-151.07l20.848-20.848c70.301 76.16 14.734 201.69-88.906 201.31-31.898-0.035156-62.48-12.727-85.039-35.281-22.555-22.559-35.242-53.141-35.281-85.039-0.80469-98.559 115.83-156.2 193.45-95.535v-0.003906c2.4531 1.8828 5.9727 1.418 7.8516-1.0352 1.8828-2.457 1.418-5.9727-1.0352-7.8555-84.844-66.309-212.37-3.2969-211.46 104.43 0.039063 34.867 13.91 68.301 38.566 92.957s58.086 38.523 92.957 38.562c113.55 0.39062 174.16-137.31 96.82-220.43l20.809-20.809c2.4023 2.5742 4.7422 5.1914 6.8906 7.8672zm28.18-25.199-15.359-2.3516 34.957-34.957h-0.003906c2.1953-2.1875 2.1992-5.7422 0.011718-7.9336-2.1875-2.1953-5.7383-2.1992-7.9336-0.011719l-34.957 34.957-2.3516-15.359 9.7617-9.7383 39.648-39.648c2.2578 6.0938 4.8555 12.055 7.7734 17.859 5.8086 2.9141 11.77 5.5078 17.859 7.7734z"/>
  <path fill="#2776b6" d="m310.49 47.395c-8.375 0.003907-16.406 3.3281-22.332 9.2461s-9.2617 13.945-9.2773 22.32v8.8477c0 1.4844 0.58984 2.9102 1.6406 3.9609 1.0508 1.0469 2.4766 1.6367 3.9609 1.6367h51.98c1.4844 0 2.9062-0.58984 3.957-1.6367 1.0508-1.0508 1.6406-2.4766 1.6406-3.9609v-8.8477c-0.015625-8.3711-3.3438-16.391-9.2617-22.309-5.918-5.918-13.941-9.2461-22.309-9.2578zm20.391 34.836h-40.801c-0.8125-5.8945 0.96484-11.855 4.875-16.344 3.9141-4.4844 9.5742-7.0625 15.523-7.0625 5.9531 0 11.613 2.5781 15.523 7.0625 3.9102 4.4883 5.6875 10.449 4.875 16.344z"/>
 </g>
</svg>
