<?xml version="1.0" encoding="UTF-8"?>
<svg width="" height="" version="1.1" viewBox="0 0 700 700" xmlns="http://www.w3.org/2000/svg">
 <path fill="#ffffff" d="m560 140h-46.668v46.668h-46.664v-46.668h-46.668v-46.668h46.668v-46.664h46.668l-0.003907 46.664h46.668zm-70 93.332c-35.031-0.007812-68.207-15.75-90.363-42.887-22.156-27.133-30.949-62.785-23.953-97.113h-212.35c-6.1875 0-12.121 2.4609-16.496 6.8359-4.3789 4.375-6.8359 10.309-6.8359 16.5v373.33c0.011719 5.7383 2.1367 11.273 5.9648 15.547 3.832 4.2734 9.1016 6.9883 14.809 7.6211 5.7031 0.63672 11.441-0.84766 16.117-4.1758l149.78-106.98 149.77 106.98v-0.003906c4.6758 3.332 10.418 4.8242 16.121 4.1875 5.707-0.63281 10.98-3.3477 14.812-7.625 3.832-4.2734 5.9531-9.8125 5.957-15.555v-259.02c-7.6797 1.5625-15.496 2.3516-23.332 2.3516z"/>
</svg>
