<?xml version="1.0" encoding="UTF-8"?>
<svg width="" height="" version="1.1" viewBox="0 0 700 700" xmlns="http://www.w3.org/2000/svg" xmlns:xlink="http://www.w3.org/1999/xlink">
 <defs>
  <symbol id="t" overflow="visible">
   <path d="m3.6562-0.21875c-0.1875 0.09375-0.38672 0.16797-0.59375 0.21875-0.19922 0.050781-0.40625 0.078125-0.625 0.078125-0.66797 0-1.1992-0.17969-1.5938-0.54688-0.38672-0.375-0.57812-0.87891-0.57812-1.5156 0-0.64453 0.19141-1.1484 0.57812-1.5156 0.39453-0.375 0.92578-0.5625 1.5938-0.5625 0.21875 0 0.42578 0.027344 0.625 0.078125 0.20703 0.054687 0.40625 0.125 0.59375 0.21875v0.82812c-0.1875-0.125-0.375-0.21875-0.5625-0.28125-0.17969-0.0625-0.37109-0.09375-0.57812-0.09375-0.36719 0-0.65625 0.12109-0.875 0.35938-0.21094 0.23047-0.3125 0.55469-0.3125 0.96875 0 0.40625 0.10156 0.73047 0.3125 0.96875 0.21875 0.23047 0.50781 0.34375 0.875 0.34375 0.20703 0 0.39844-0.023437 0.57812-0.078125 0.1875-0.0625 0.375-0.16016 0.5625-0.29688z"/>
  </symbol>
  <symbol id="b" overflow="visible">
   <path d="m2.6875-2.1719c-0.085938-0.039063-0.16797-0.070313-0.25-0.09375-0.085938-0.019531-0.16797-0.03125-0.25-0.03125-0.25 0-0.44531 0.085937-0.57812 0.25-0.125 0.15625-0.1875 0.38281-0.1875 0.67188v1.375h-0.96875v-2.9844h0.96875v0.48438c0.11328-0.19531 0.25-0.33594 0.40625-0.42188 0.16406-0.09375 0.35938-0.14062 0.57812-0.14062h0.10938c0.039063 0 0.09375 0.007812 0.15625 0.015625z"/>
  </symbol>
  <symbol id="a" overflow="visible">
   <path d="m3.4375-1.5v0.26562h-2.2344c0.03125 0.23047 0.11328 0.40234 0.25 0.51562 0.13281 0.10547 0.32812 0.15625 0.57812 0.15625 0.20703 0 0.41406-0.023438 0.625-0.078125 0.20703-0.0625 0.42188-0.15625 0.64062-0.28125v0.73438c-0.21875 0.09375-0.44531 0.16406-0.67188 0.20312-0.23047 0.039062-0.45312 0.0625-0.67188 0.0625-0.54297 0-0.96484-0.13281-1.2656-0.40625-0.30469-0.28125-0.45312-0.67188-0.45312-1.1719 0-0.47656 0.14453-0.85938 0.4375-1.1406 0.30078-0.28125 0.70703-0.42188 1.2188-0.42188 0.46875 0 0.84375 0.14062 1.125 0.42188s0.42188 0.66406 0.42188 1.1406zm-0.96875-0.32812c0-0.17578-0.058594-0.31641-0.17188-0.42188-0.10547-0.11328-0.24219-0.17188-0.40625-0.17188-0.1875 0-0.33984 0.054687-0.45312 0.15625-0.11719 0.10547-0.1875 0.25-0.21875 0.4375z"/>
  </symbol>
  <symbol id="f" overflow="visible">
   <path d="m1.7969-1.3438c-0.19922 0-0.35156 0.039062-0.45312 0.10938-0.09375 0.0625-0.14062 0.16406-0.14062 0.29688 0 0.11719 0.035156 0.21094 0.10938 0.28125 0.082031 0.0625 0.19531 0.09375 0.34375 0.09375 0.17578 0 0.32812-0.0625 0.45312-0.1875s0.1875-0.28516 0.1875-0.48438v-0.10938zm1.4688-0.35938v1.7031h-0.96875v-0.4375c-0.125 0.17969-0.27344 0.30859-0.4375 0.39062-0.15625 0.082031-0.35156 0.125-0.57812 0.125-0.3125 0-0.57031-0.085938-0.76562-0.26562-0.1875-0.1875-0.28125-0.42188-0.28125-0.70312 0-0.35156 0.11719-0.61328 0.35938-0.78125 0.23828-0.16406 0.61719-0.25 1.1406-0.25h0.5625v-0.0625c0-0.15625-0.0625-0.26562-0.1875-0.32812-0.11719-0.070312-0.29688-0.10938-0.54688-0.10938-0.21094 0-0.40234 0.023437-0.57812 0.0625-0.17969 0.042969-0.33984 0.10156-0.48438 0.17188v-0.71875c0.19531-0.050781 0.39844-0.085938 0.60938-0.10938 0.20703-0.03125 0.41406-0.046875 0.625-0.046875 0.53906 0 0.92969 0.10938 1.1719 0.32812 0.23828 0.21094 0.35938 0.55469 0.35938 1.0312z"/>
  </symbol>
  <symbol id="c" overflow="visible">
   <path d="m1.5-3.8438v0.85938h0.98438v0.67188h-0.98438v1.2812c0 0.13672 0.023438 0.23047 0.078125 0.28125 0.0625 0.042969 0.17578 0.0625 0.34375 0.0625h0.48438v0.6875h-0.8125c-0.38672 0-0.65625-0.078125-0.8125-0.23438s-0.23438-0.42188-0.23438-0.79688v-1.2812h-0.46875v-0.67188h0.46875v-0.85938z"/>
  </symbol>
  <symbol id="e" overflow="visible">
   <path d="m2.5-2.5469v-1.6094h0.95312v4.1562h-0.95312v-0.4375c-0.13672 0.17969-0.28125 0.30859-0.4375 0.39062-0.15625 0.082031-0.33984 0.125-0.54688 0.125-0.375 0-0.68359-0.14453-0.92188-0.4375-0.23047-0.28906-0.34375-0.67188-0.34375-1.1406 0-0.45703 0.11328-0.83203 0.34375-1.125 0.23828-0.28906 0.54688-0.4375 0.92188-0.4375 0.19531 0 0.375 0.042969 0.53125 0.125 0.16406 0.085938 0.31641 0.21484 0.45312 0.39062zm-0.64062 1.9375c0.20703 0 0.36328-0.070313 0.46875-0.21875 0.11328-0.15625 0.17188-0.37891 0.17188-0.67188 0-0.28125-0.058594-0.49219-0.17188-0.64062-0.10547-0.15625-0.26172-0.23438-0.46875-0.23438-0.19922 0-0.35547 0.078125-0.46875 0.23438-0.10547 0.14844-0.15625 0.35938-0.15625 0.64062 0 0.29297 0.050781 0.51562 0.15625 0.67188 0.11328 0.14844 0.26953 0.21875 0.46875 0.21875z"/>
  </symbol>
  <symbol id="l" overflow="visible">
   <path d="m2.0469-0.60938c0.20703 0 0.36328-0.070313 0.46875-0.21875 0.11328-0.15625 0.17188-0.37891 0.17188-0.67188 0-0.28125-0.058594-0.49219-0.17188-0.64062-0.10547-0.15625-0.26172-0.23438-0.46875-0.23438-0.19922 0-0.35547 0.078125-0.46875 0.23438-0.10547 0.14844-0.15625 0.35938-0.15625 0.64062 0 0.29297 0.050781 0.51562 0.15625 0.67188 0.11328 0.14844 0.26953 0.21875 0.46875 0.21875zm-0.625-1.9375c0.125-0.17578 0.26562-0.30469 0.42188-0.39062 0.16406-0.082031 0.35156-0.125 0.5625-0.125 0.36328 0 0.66406 0.14844 0.90625 0.4375 0.23828 0.29297 0.35938 0.66797 0.35938 1.125 0 0.46875-0.12109 0.85156-0.35938 1.1406-0.24219 0.29297-0.54297 0.4375-0.90625 0.4375-0.21094 0-0.39844-0.042969-0.5625-0.125-0.15625-0.082031-0.29688-0.21094-0.42188-0.39062v0.4375h-0.96875v-4.1562h0.96875z"/>
  </symbol>
  <symbol id="k" overflow="visible">
   <path d="m0.0625-2.9844h0.95312l0.8125 2.0156 0.6875-2.0156h0.95312l-1.2656 3.2656c-0.125 0.33203-0.27344 0.56641-0.4375 0.70312-0.16797 0.13281-0.39062 0.20312-0.67188 0.20312h-0.54688v-0.64062h0.29688c0.16406 0 0.28516-0.027344 0.35938-0.078125 0.070313-0.054688 0.12891-0.14062 0.17188-0.26562l0.03125-0.09375z"/>
  </symbol>
  <symbol id="j" overflow="visible">
   <path d="m2.9219-0.71875h-1.6094l-0.25 0.71875h-1.0312l1.4688-3.9844h1.2344l1.4688 3.9844h-1.0312zm-1.3594-0.75h1.0938l-0.53125-1.5781z"/>
  </symbol>
  <symbol id="s" overflow="visible">
   <path d="m0.45312-4.1562h0.96875v4.1562h-0.96875z"/>
  </symbol>
  <symbol id="i" overflow="visible">
   <path d="m3.4688-1.8281v1.8281h-0.96875v-1.3906c0-0.25781-0.007812-0.4375-0.015625-0.53125-0.011719-0.10156-0.03125-0.17578-0.0625-0.21875-0.03125-0.0625-0.085937-0.10938-0.15625-0.14062-0.0625-0.039062-0.13281-0.0625-0.20312-0.0625-0.21094 0-0.37109 0.078125-0.48438 0.23438-0.10547 0.15625-0.15625 0.37109-0.15625 0.64062v1.4688h-0.96875v-4.1562h0.96875v1.6094c0.13281-0.17578 0.28516-0.30469 0.45312-0.39062 0.16406-0.082031 0.34375-0.125 0.53125-0.125 0.34375 0 0.60156 0.10938 0.78125 0.32812 0.1875 0.21094 0.28125 0.51172 0.28125 0.90625z"/>
  </symbol>
  <symbol id="h" overflow="visible">
   <path d="m3.2344-2.5c0.11328-0.17578 0.25391-0.3125 0.42188-0.40625 0.16406-0.10156 0.35156-0.15625 0.5625-0.15625 0.33203 0 0.58594 0.10938 0.76562 0.32812 0.1875 0.21094 0.28125 0.51172 0.28125 0.90625v1.8281h-0.96875v-1.5625c0.007813-0.019531 0.015625-0.039062 0.015625-0.0625v-0.10938c0-0.21875-0.03125-0.375-0.09375-0.46875s-0.16406-0.14062-0.29688-0.14062c-0.1875 0-0.33594 0.078125-0.4375 0.23438-0.09375 0.14844-0.14062 0.35938-0.14062 0.64062v1.4688h-0.96875v-1.5625c0-0.33203-0.03125-0.54688-0.09375-0.64062-0.054688-0.09375-0.15234-0.14062-0.29688-0.14062-0.17969 0-0.32031 0.078125-0.42188 0.23438-0.09375 0.14844-0.14062 0.35938-0.14062 0.64062v1.4688h-0.96875v-2.9844h0.96875v0.4375c0.11328-0.17578 0.24219-0.30469 0.39062-0.39062 0.15625-0.082031 0.32812-0.125 0.51562-0.125 0.20703 0 0.39062 0.054688 0.54688 0.15625 0.15625 0.09375 0.27344 0.23047 0.35938 0.40625z"/>
  </symbol>
  <symbol id="g" overflow="visible">
   <path d="m3.4688-1.8281v1.8281h-0.96875v-1.3906c0-0.25781-0.007812-0.4375-0.015625-0.53125-0.011719-0.10156-0.03125-0.17578-0.0625-0.21875-0.03125-0.0625-0.085937-0.10938-0.15625-0.14062-0.0625-0.039062-0.13281-0.0625-0.20312-0.0625-0.21094 0-0.37109 0.078125-0.48438 0.23438-0.10547 0.15625-0.15625 0.37109-0.15625 0.64062v1.4688h-0.96875v-2.9844h0.96875v0.4375c0.13281-0.17578 0.28516-0.30469 0.45312-0.39062 0.16406-0.082031 0.34375-0.125 0.53125-0.125 0.34375 0 0.60156 0.10938 0.78125 0.32812 0.1875 0.21094 0.28125 0.51172 0.28125 0.90625z"/>
  </symbol>
  <symbol id="r" overflow="visible">
   <path d="m2.4219-4.1562v0.625h-0.51562c-0.13672 0-0.23438 0.027344-0.29688 0.078125-0.054687 0.054687-0.078125 0.13672-0.078125 0.25v0.21875h0.82812v0.67188h-0.82812v2.3125h-0.95312v-2.3125h-0.46875v-0.67188h0.46875v-0.21875c0-0.32031 0.085937-0.5625 0.26562-0.71875 0.1875-0.15625 0.47266-0.23438 0.85938-0.23438z"/>
  </symbol>
  <symbol id="d" overflow="visible">
   <path d="m1.875-2.375c-0.21094 0-0.37109 0.078125-0.48438 0.23438-0.10547 0.14844-0.15625 0.35938-0.15625 0.64062 0 0.29297 0.050781 0.51562 0.15625 0.67188 0.11328 0.14844 0.27344 0.21875 0.48438 0.21875 0.20703 0 0.36719-0.070313 0.48438-0.21875 0.11328-0.15625 0.17188-0.37891 0.17188-0.67188 0-0.28125-0.058594-0.49219-0.17188-0.64062-0.11719-0.15625-0.27734-0.23438-0.48438-0.23438zm0-0.6875c0.51953 0 0.92188 0.14062 1.2031 0.42188 0.28906 0.27344 0.4375 0.65234 0.4375 1.1406 0 0.5-0.14844 0.89062-0.4375 1.1719-0.28125 0.27344-0.68359 0.40625-1.2031 0.40625-0.51172 0-0.91406-0.13281-1.2031-0.40625-0.29297-0.28125-0.4375-0.67188-0.4375-1.1719 0-0.48828 0.14453-0.86719 0.4375-1.1406 0.28906-0.28125 0.69141-0.42188 1.2031-0.42188z"/>
  </symbol>
  <symbol id="q" overflow="visible">
   <path d="m0.5-3.9844h1.1562l1.4375 2.7344v-2.7344h0.98438v3.9844h-1.1562l-1.4375-2.7344v2.7344h-0.98438z"/>
  </symbol>
  <symbol id="p" overflow="visible">
   <path d="m0.42188-1.1719v-1.8125h0.96875v0.29688 0.60938 0.48438c0 0.24219 0.003906 0.41797 0.015625 0.53125 0.007812 0.10547 0.03125 0.17969 0.0625 0.21875 0.039062 0.0625 0.09375 0.11719 0.15625 0.15625 0.0625 0.03125 0.13281 0.046875 0.21875 0.046875 0.19531 0 0.35156-0.078125 0.46875-0.23438 0.11328-0.15625 0.17188-0.36719 0.17188-0.64062v-1.4688h0.95312v2.9844h-0.95312v-0.4375c-0.14844 0.17969-0.30469 0.30859-0.46875 0.39062-0.15625 0.082031-0.33594 0.125-0.53125 0.125-0.34375 0-0.60938-0.10156-0.79688-0.3125-0.17969-0.21875-0.26562-0.53125-0.26562-0.9375z"/>
  </symbol>
  <symbol id="o" overflow="visible">
   <path d="m0.5-3.9844h1.7031c0.50781 0 0.89844 0.11719 1.1719 0.34375 0.26953 0.21875 0.40625 0.53906 0.40625 0.95312 0 0.41797-0.13672 0.74219-0.40625 0.96875-0.27344 0.21875-0.66406 0.32812-1.1719 0.32812h-0.67188v1.3906h-1.0312zm1.0312 0.75v1.1094h0.5625c0.19531 0 0.34766-0.046875 0.45312-0.14062 0.11328-0.10156 0.17188-0.24219 0.17188-0.42188 0-0.17578-0.058594-0.3125-0.17188-0.40625-0.10547-0.09375-0.25781-0.14062-0.45312-0.14062z"/>
  </symbol>
  <symbol id="n" overflow="visible">
   <path d="m0.45312-2.9844h0.96875v2.9375c0 0.39453-0.10156 0.69531-0.29688 0.90625-0.1875 0.21875-0.46484 0.32812-0.82812 0.32812h-0.48438v-0.64062h0.17188c0.17578 0 0.29688-0.042969 0.35938-0.125 0.070312-0.074219 0.10938-0.23047 0.10938-0.46875zm0-1.1719h0.96875v0.78125h-0.96875z"/>
  </symbol>
  <symbol id="m" overflow="visible">
   <path d="m2.875-2.8906v0.76562c-0.125-0.082031-0.25781-0.14453-0.39062-0.1875-0.13672-0.039062-0.27344-0.0625-0.40625-0.0625-0.27344 0-0.48047 0.078125-0.625 0.23438-0.14844 0.15625-0.21875 0.37109-0.21875 0.64062 0 0.28125 0.070313 0.5 0.21875 0.65625 0.14453 0.15625 0.35156 0.23438 0.625 0.23438 0.14453 0 0.28516-0.019531 0.42188-0.0625 0.13281-0.039063 0.25781-0.10938 0.375-0.20312v0.78125c-0.14844 0.0625-0.29688 0.10156-0.45312 0.125-0.15625 0.03125-0.3125 0.046875-0.46875 0.046875-0.54297 0-0.96484-0.13281-1.2656-0.40625-0.30469-0.28125-0.45312-0.67188-0.45312-1.1719 0-0.48828 0.14844-0.86719 0.45312-1.1406 0.30078-0.28125 0.72266-0.42188 1.2656-0.42188 0.15625 0 0.3125 0.015625 0.46875 0.046875 0.15625 0.023437 0.30469 0.0625 0.45312 0.125z"/>
  </symbol>
 </defs>
 <g>
  <path fill="#2776b6" d="m503.02 280c10.5-9.625 20.016-19.359 28.438-28.984 33.688-38.719 45.281-72.297 32.484-94.5-17.5-30.406-72.844-28.766-137.48-8.6406-14.875-66.062-41.125-114.84-76.234-114.84s-61.469 48.672-76.234 114.73c-64.641-20.125-119.98-21.766-137.48 8.6406s11.484 77.547 61.25 123.38c-49.766 45.938-78.859 92.969-61.25 123.48 9.4062 16.297 29.641 23.406 56.328 23.406 23.078 0 51.188-5.5781 81.156-14.875 14.875 66.172 41.125 114.95 76.344 114.95 35.109 0 61.469-48.781 76.344-114.95 29.969 9.2969 58.078 14.875 81.156 14.875 26.688 0 46.922-7.1094 56.328-23.406 12.797-22.203 1.3125-55.672-32.484-94.5-8.6406-9.4062-18.266-19.141-28.656-28.766zm-352.95 115.5c-11.266-19.578 10.828-60.266 59.391-104.89 16.078 13.781 33.797 27.453 52.5 40.25 1.75 22.75 4.5938 44.844 8.6406 65.625-63 19.688-109.27 18.484-120.53-0.98438zm110.69-146.12c-0.4375 10.172-0.76562 20.453-0.76562 30.625v3.8281 3.8281c0 2.5156 0.10938 5.1406 0.21875 7.6562s0.10938 5.1406 0.21875 7.6562 0.21875 5.0312 0.32812 7.6562l-2.625-1.9688c-7.1094-5.1406-14-10.281-20.453-15.312-2.4062-1.9688-4.8125-3.8281-7.2188-5.6875-3.1719-2.5156-6.125-5.0312-9.0781-7.6562 0.76562-0.65625 1.5312-1.3125 2.1875-1.8594 1.5312-1.3125 3.0625-2.5156 4.5938-3.8281l2.2969-1.9688c2.2969-1.9688 4.7031-3.8281 7.2188-5.6875 4.9219-3.8281 9.9531-7.6562 15.203-11.484 1.75-1.3125 3.5-2.5156 5.25-3.8281l2.625-1.9688zm1.2031-20.234c-18.812 12.906-36.531 26.469-52.5 40.25-4.375-4.0469-8.5312-8.0938-12.578-12.031l-3.3906-3.3906c-1.6406-1.6406-3.2812-3.3906-4.8125-5.0312-1.0938-1.0938-2.0781-2.1875-3.0625-3.2812l-2.9531-3.2812c-0.98438-1.0938-1.9688-2.1875-2.8438-3.2812-0.4375-0.54688-0.875-1.0938-1.4219-1.6406-2.2969-2.7344-4.375-5.3594-6.4531-7.9844-1.6406-2.0781-3.1719-4.1562-4.7031-6.2344-0.76562-0.98438-1.4219-2.0781-2.1875-3.0625-2.0781-3.0625-4.0469-6.0156-5.7969-8.8594-0.54688-0.98438-1.0938-1.8594-1.6406-2.8438-1.6406-2.8438-3.0625-5.5781-4.2656-8.3125-2.0781-4.4844-3.7188-8.75-4.7031-12.688-1.4219-5.25-1.8594-9.9531-1.4219-14.219v-0.32812c0.10938-0.65625 0.21875-1.3125 0.32812-1.8594 0-0.21875 0.10938-0.32812 0.10938-0.54688 0.10938-0.32812 0.10938-0.65625 0.21875-0.98438 0-0.10938 0.10938-0.21875 0.10938-0.4375s0.10938-0.32812 0.10938-0.54688c0.10938-0.21875 0.10938-0.4375 0.21875-0.65625s0.10938-0.4375 0.21875-0.65625c0.32812-0.875 0.76562-1.75 1.3125-2.625 0.875-1.5312 2.0781-3.0625 3.3906-4.375 15.422-15.203 59.281-14.766 117.14 3.3906-3.7188 20.672-6.6719 42.875-8.4219 65.516zm159.25-11.156c-8.5312-5.4688-17.172-10.828-26.141-15.969-1.0938-0.65625-2.1875-1.3125-3.2812-1.8594-2.1875-1.3125-4.4844-2.5156-6.6719-3.7188-2.2969-1.2031-4.4844-2.4062-6.7812-3.6094-3.3906-1.8594-6.7812-3.6094-10.172-5.3594 7-3.2812 14-6.2344 20.781-8.9688 3.8281-1.6406 7.7656-3.0625 11.484-4.5938 2.8438-1.0938 5.6875-2.1875 8.4219-3.1719 1.8594-0.65625 3.7188-1.3125 5.5781-1.9688 2.8438 15.094 5.1406 31.719 6.7812 49.219zm-71.203-168.88c8.0938 0 16.406 5.1406 24.391 14.656 1.0938 1.2031 2.0781 2.5156 3.0625 3.9375 0.32812 0.4375 0.65625 0.875 0.98438 1.4219 4.8125 6.7812 9.4062 15.094 13.781 24.828 0.875 2.0781 1.8594 4.2656 2.7344 6.4531 1.5312 3.7188 2.9531 7.5469 4.375 11.594 0.875 2.4062 1.75 4.9219 2.5156 7.4375 0.875 2.5156 1.6406 5.1406 2.4062 7.875 0.21875 0.875 0.54688 1.75 0.76562 2.7344 0.54688 1.75 0.98438 3.6094 1.5312 5.4688 1.5312 5.5781 2.9531 11.375 4.2656 17.391-20.016 7-40.578 15.531-61.141 25.375-20.562-9.8438-41.125-18.375-61.141-25.375 14.766-64.312 38.938-103.8 61.469-103.8zm-68.25 143.28c0.32812-2.0781 0.54688-4.1562 0.875-6.125 0.4375-3.0625 0.875-6.0156 1.4219-8.9688 0.21875-0.98438 0.32812-1.9688 0.54688-2.9531 0.32812-1.75 0.65625-3.6094 0.98438-5.3594 0-0.10938 0-0.32812 0.10938-0.4375 9.1875 3.2812 18.703 6.8906 28.438 11.047 2.9531 1.2031 5.9062 2.5156 8.8594 3.8281s6.0156 2.625 8.9688 4.0469c-4.4844 2.2969-9.0781 4.7031-13.562 7.1094-1.8594 0.98438-3.7188 1.9688-5.4688 3.0625-2.625 1.4219-5.25 2.9531-7.875 4.375-8.8594 5.1406-17.5 10.5-26.141 16.078 0.76562-8.8594 1.75-17.391 2.8438-25.703zm3.8281 198.62c-0.32812-1.75-0.65625-3.5-0.98438-5.3594-0.21875-0.98438-0.32812-1.9688-0.54688-2.9531-0.54688-2.9531-0.98438-6.0156-1.4219-8.9688-0.32812-2.0781-0.54688-4.0469-0.875-6.125-1.0938-8.3125-2.0781-16.844-2.9531-25.594 8.6406 5.4688 17.281 10.938 26.141 15.969 8.8594 5.1406 17.828 9.9531 26.797 14.656-0.98438 0.4375-1.9688 0.875-2.9531 1.3125-1.9688 0.875-3.9375 1.75-6.0156 2.625-1.9688 0.875-3.9375 1.75-5.9062 2.5156-3.9375 1.6406-7.7656 3.2812-11.594 4.8125-2.8438 1.2031-5.6875 2.2969-8.5312 3.3906-3.8281 1.4219-7.4375 2.8438-11.156 4.0469v-0.32812zm81.484 112.77c-0.65625 0.54688-1.4219 1.0938-2.0781 1.6406s-1.4219 0.98438-2.1875 1.4219c-4.2656 2.625-8.5312 4.0469-12.797 4.0469-22.531 0-46.812-39.484-61.141-103.8 14.984-5.25 30.406-11.484 45.719-18.375 2.5156-1.2031 5.1406-2.2969 7.6562-3.5 1.3125-0.54688 2.625-1.2031 3.8281-1.75 1.3125-0.65625 2.5156-1.2031 3.8281-1.8594 20.562 9.8438 41.125 18.594 61.141 25.484-10.609 48.234-26.906 82.578-43.969 96.688zm47.359-112.22c-12.906-4.4844-26.359-9.9531-40.25-16.188-1.9688-0.875-3.9375-1.75-6.0156-2.7344 9.0781-4.7031 18.047-9.625 26.797-14.656 2.1875-1.3125 4.4844-2.625 6.6719-3.9375l9.8438-5.9062c3.2812-1.9688 6.4531-4.0469 9.625-6.125-1.5312 17.609-3.8281 34.234-6.6719 49.547zm-27.344-47.359c-12.578 7.2188-24.938 13.781-37.078 19.797-12.141-6.0156-24.5-12.578-37.078-19.797s-24.391-14.656-35.656-22.203c-0.875-13.562-1.3125-27.453-1.3125-42s0.54688-28.438 1.3125-42c11.266-7.4375 23.078-14.875 35.656-22.203s24.938-13.672 37.078-19.797c12.141 6.0156 24.391 12.578 36.969 19.797 4.5938 2.625 9.1875 5.3594 13.672 8.0938 2.9531 1.8594 6.0156 3.7188 8.9688 5.5781 4.375 2.7344 8.75 5.5781 13.125 8.4219 0.54688 8.4219 0.875 17.062 1.2031 25.922 0.10938 5.25 0.21875 10.719 0.21875 16.078 0 14.547-0.54688 28.547-1.3125 42-11.594 7.7656-23.406 15.203-35.766 22.312zm52.938-71.859c0-2.5156-0.10938-5.1406-0.21875-7.6562s-0.10938-5.1406-0.21875-7.6562-0.21875-5.1406-0.32812-7.6562c14.219 10.062 27.562 20.344 39.703 30.734-12.141 10.391-25.484 20.672-39.703 30.734 0.4375-10.172 0.76562-20.453 0.76562-30.734 0.10938-2.625 0-5.25 0-7.7656zm-10.5-108.72c30.516-9.5156 57.203-14.328 77.766-14.328 6.125 0 11.812 0.4375 16.844 1.2031 2.8438 0.4375 5.3594 0.98438 7.7656 1.75 2.9531 0.875 5.4688 1.8594 7.875 3.0625 0.4375 0.21875 0.76562 0.4375 1.0938 0.65625 0.76562 0.4375 1.4219 0.875 2.0781 1.3125l0.98438 0.65625c0.65625 0.4375 1.2031 0.98438 1.8594 1.5312 1.2031 0.98438 2.1875 2.1875 3.0625 3.2812 0.4375 0.54688 0.875 1.2031 1.2031 1.8594 8.9688 15.531-2.1875 43.312-30.734 76.016-0.98438 1.2031-2.0781 2.4062-3.1719 3.6094-1.6406 1.75-3.2812 3.6094-4.9219 5.3594s-3.3906 3.6094-5.25 5.3594c-0.54688 0.54688-1.2031 1.2031-1.75 1.8594-4.1562 4.1562-8.6406 8.4219-13.234 12.578-15.969-13.781-33.688-27.344-52.938-40.359-1.75-22.641-4.5938-44.734-8.5312-65.406zm120.53 231.88c-0.875 1.5312-2.0781 3.0625-3.3906 4.375-10.062 9.9531-32.156 13.234-62.344 9.2969l-2.625-0.32812c-2.1875-0.32812-4.4844-0.65625-6.6719-1.0938-0.32812 0-0.54688-0.10938-0.875-0.10938-1.3125-0.21875-2.625-0.4375-4.0469-0.76562-0.32812 0-0.65625-0.10938-0.98438-0.21875-1.5312-0.21875-3.0625-0.54688-4.4844-0.875-5.0312-1.0938-10.281-2.2969-15.75-3.7188-0.875-0.21875-1.75-0.4375-2.7344-0.76562-1.8594-0.4375-3.6094-0.98438-5.4688-1.5312-3.7188-1.0938-7.4375-2.1875-11.266-3.3906 1.75-9.0781 3.2812-18.375 4.5938-27.891 0.54688-4.0469 1.0938-8.2031 1.5312-12.359 0.98438-8.3125 1.75-16.734 2.4062-25.156 14.438-9.8438 28-19.906 40.688-30.078 4.2656-3.3906 8.3125-6.7812 12.25-10.281 2.625 2.4062 5.1406 4.8125 7.6562 7.2188 0.65625 0.54688 1.2031 1.2031 1.8594 1.75s1.2031 1.2031 1.8594 1.8594c6.125 6.0156 11.812 12.031 16.953 17.938 28.656 32.812 39.812 60.484 30.844 76.125z"/>
  <path fill="#2776b6" d="m392.77 248.94c-1.5312-2.625-3.2812-4.9219-5.3594-6.7812-0.21875-0.21875-0.4375-0.4375-0.65625-0.54688-0.4375-0.32812-0.875-0.76562-1.3125-1.0938-3.2812-2.625-7.1094-4.4844-11.156-5.3594-0.98438-0.21875-2.0781-0.32812-3.0625-0.4375-7.6562-0.65625-15.531 2.2969-21.328 8.3125-3.1719-3.0625-6.7812-5.25-10.5-6.5625-8.4219-3.0625-17.719-1.75-24.938 4.1562-0.4375 0.32812-0.875 0.65625-1.2031 1.0938-0.4375 0.32812-0.76562 0.76562-1.0938 1.0938-4.1562 4.1562-7 9.4062-8.4219 15.422-0.4375 1.6406-0.65625 3.2812-0.76562 5.0312-0.4375 5.25 0.21875 10.5 1.8594 15.203 0.54688 1.4219 1.0938 2.7344 1.75 4.0469 0.21875 0.4375 0.4375 0.875 0.76562 1.3125 0.76562 1.3125 1.5312 2.5156 2.4062 3.6094 0.32812 0.4375 0.65625 0.76562 0.98438 1.2031l33.359 34.234c0.76562 0.76562 1.75 1.3125 2.8438 1.75s2.1875 0.65625 3.2812 0.65625c2.0781 0 4.5938-0.875 6.125-2.2969l28.656-28.656 3.8281-4.4844c7.1094-8.4219 9.8438-19.906 7.875-30.297-0.76562-3.9375-2.0781-7.4375-3.9375-10.609zm-13.781 8.0938c2.1875 3.7188 2.7344 8.75 1.75 13.344-0.21875 0.875-0.4375 1.75-0.76562 2.625l-0.65625 1.6406 0.65625-1.6406c0.32812-0.875 0.54688-1.75 0.76562-2.625 0.98438-4.5938 0.4375-9.5156-1.75-13.344-0.10938-0.21875-0.32812-0.4375-0.4375-0.65625 0.21875 0.21875 0.32812 0.4375 0.4375 0.65625zm-28.875 49.328 26.469-27.125c0.98438-1.0938 1.75-2.4062 2.4062-3.7188-0.65625 1.3125-1.5312 2.625-2.4062 3.7188zm-9.9531-50.641 3.8281 4.4844 0.65625 0.65625-0.65625-0.65625-3.8281-4.4844c-0.32812-0.32812-0.65625-0.76562-0.98438-1.0938 0.32812 0.4375 0.65625 0.76562 0.98438 1.0938zm-5.0312-3.8281c-0.4375-0.21875-0.875-0.32812-1.3125-0.54688 0.4375 0.10938 0.875 0.32812 1.3125 0.54688z"/>
  
 </g>
</svg>
