<?xml version="1.0" encoding="UTF-8"?>
<svg width="" height="" version="1.1" viewBox="0 0 700 700" xmlns="http://www.w3.org/2000/svg" xmlns:xlink="http://www.w3.org/1999/xlink">
 <defs>
  <symbol id="e" overflow="visible">
   <path d="m28.422-1.7031c-1.4688 0.76172-3 1.3359-4.5938 1.7188-1.5859 0.38281-3.2344 0.57812-4.9531 0.57812-5.1562 0-9.2422-1.4375-12.25-4.3125-3.0117-2.875-4.5156-6.7812-4.5156-11.719s1.5039-8.8438 4.5156-11.719c3.0078-2.8828 7.0938-4.3281 12.25-4.3281 1.7188 0 3.3672 0.19531 4.9531 0.57812 1.5938 0.38672 3.125 0.96094 4.5938 1.7188v6.4062c-1.4805-1.0078-2.9375-1.75-4.375-2.2188s-2.9492-0.70312-4.5312-0.70312c-2.8438 0-5.0859 0.91406-6.7188 2.7344-1.625 1.8242-2.4375 4.3359-2.4375 7.5312 0 3.1992 0.8125 5.7109 2.4375 7.5312 1.6328 1.8242 3.875 2.7344 6.7188 2.7344 1.582 0 3.0938-0.23438 4.5312-0.70312 1.4375-0.47656 2.8945-1.2188 4.375-2.2188z"/>
  </symbol>
  <symbol id="c" overflow="visible">
   <path d="m20.797-16.875c-0.64844-0.3125-1.293-0.53516-1.9375-0.67188-0.64844-0.14453-1.293-0.21875-1.9375-0.21875-1.9062 0-3.375 0.60938-4.4062 1.8281-1.0234 1.2188-1.5312 2.9688-1.5312 5.25v10.688h-7.4219v-23.203h7.4219v3.8125c0.94531-1.5195 2.0352-2.6289 3.2656-3.3281 1.2383-0.69531 2.7227-1.0469 4.4531-1.0469 0.25 0 0.51953 0.011719 0.8125 0.03125 0.28906 0.023437 0.71094 0.070313 1.2656 0.14062z"/>
  </symbol>
  <symbol id="a" overflow="visible">
   <path d="m26.719-11.656v2.1094h-17.328c0.17578 1.7422 0.80078 3.0469 1.875 3.9219 1.082 0.86719 2.5859 1.2969 4.5156 1.2969 1.5625 0 3.1602-0.22656 4.7969-0.6875 1.6328-0.46875 3.3164-1.1719 5.0469-2.1094v5.7188c-1.75 0.65625-3.5078 1.1523-5.2656 1.4844-1.75 0.34375-3.5078 0.51562-5.2656 0.51562-4.1992 0-7.4609-1.0625-9.7812-3.1875-2.3242-2.1328-3.4844-5.1289-3.4844-8.9844 0-3.7812 1.1406-6.7539 3.4219-8.9219 2.2812-2.1758 5.4258-3.2656 9.4375-3.2656 3.6445 0 6.5625 1.1016 8.75 3.2969 2.1875 2.1992 3.2812 5.1367 3.2812 8.8125zm-7.625-2.4688c0-1.4062-0.41406-2.5391-1.2344-3.4062-0.8125-0.86328-1.8867-1.2969-3.2188-1.2969-1.4375 0-2.6055 0.40625-3.5 1.2188-0.89844 0.80469-1.4531 1.9648-1.6719 3.4844z"/>
  </symbol>
  <symbol id="j" overflow="visible">
   <path d="m13.969-10.438c-1.5547 0-2.7188 0.26562-3.5 0.79688-0.78125 0.52344-1.1719 1.293-1.1719 2.3125 0 0.9375 0.3125 1.6719 0.9375 2.2031 0.63281 0.53125 1.5078 0.79688 2.625 0.79688 1.3945 0 2.5664-0.5 3.5156-1.5 0.95703-1 1.4375-2.2539 1.4375-3.7656v-0.84375zm11.328-2.7969v13.234h-7.4844v-3.4375c-0.99219 1.4062-2.1094 2.4336-3.3594 3.0781-1.2422 0.63281-2.75 0.95312-4.5312 0.95312-2.4062 0-4.3594-0.69531-5.8594-2.0938-1.4922-1.4062-2.2344-3.2227-2.2344-5.4531 0-2.7266 0.92969-4.7266 2.7969-6 1.875-1.2695 4.8125-1.9062 8.8125-1.9062h4.375v-0.57812c0-1.1641-0.46484-2.0195-1.3906-2.5625-0.92969-0.55078-2.3711-0.82812-4.3281-0.82812-1.5859 0-3.0625 0.16406-4.4375 0.48438-1.3672 0.3125-2.6328 0.78906-3.7969 1.4219v-5.6562c1.582-0.38281 3.1758-0.67578 4.7812-0.875 1.6016-0.20703 3.2031-0.3125 4.7969-0.3125 4.1875 0 7.207 0.82812 9.0625 2.4844 1.8633 1.6484 2.7969 4.3281 2.7969 8.0469z"/>
  </symbol>
  <symbol id="b" overflow="visible">
   <path d="m11.656-29.781v6.5781h7.6562v5.3125h-7.6562v9.8281c0 1.0859 0.21094 1.8203 0.64062 2.2031 0.4375 0.375 1.2891 0.5625 2.5625 0.5625h3.7969v5.2969h-6.3594c-2.9297 0-5-0.60938-6.2188-1.8281-1.2188-1.2266-1.8281-3.3047-1.8281-6.2344v-9.8281h-3.6875v-5.3125h3.6875v-6.5781z"/>
  </symbol>
  <symbol id="i" overflow="visible">
   <path d="m19.344-19.797v-12.438h7.4531v32.234h-7.4531v-3.3594c-1.0234 1.3672-2.1484 2.3672-3.375 3-1.2305 0.63281-2.6523 0.95312-4.2656 0.95312-2.8555 0-5.2031-1.1328-7.0469-3.4062-1.8359-2.2695-2.75-5.1914-2.75-8.7656 0-3.5703 0.91406-6.4922 2.75-8.7656 1.8438-2.2812 4.1914-3.4219 7.0469-3.4219 1.6016 0 3.0195 0.32422 4.25 0.96875 1.2383 0.64844 2.3672 1.6484 3.3906 3zm-4.8906 15.016c1.5938 0 2.8047-0.57812 3.6406-1.7344 0.83203-1.1641 1.25-2.8516 1.25-5.0625 0-2.207-0.41797-3.8906-1.25-5.0469-0.83594-1.1641-2.0469-1.75-3.6406-1.75-1.5742 0-2.7773 0.58594-3.6094 1.75-0.83594 1.1562-1.25 2.8398-1.25 5.0469 0 2.2109 0.41406 3.8984 1.25 5.0625 0.83203 1.1562 2.0352 1.7344 3.6094 1.7344z"/>
  </symbol>
  <symbol id="h" overflow="visible">
   <path d="m15.906-4.7812c1.5938 0 2.8047-0.57812 3.6406-1.7344 0.83203-1.1641 1.25-2.8516 1.25-5.0625 0-2.207-0.41797-3.8906-1.25-5.0469-0.83594-1.1641-2.0469-1.75-3.6406-1.75-1.5859 0-2.8047 0.58594-3.6562 1.75-0.84375 1.168-1.2656 2.8516-1.2656 5.0469 0 2.1992 0.42188 3.8828 1.2656 5.0469 0.85156 1.168 2.0703 1.75 3.6562 1.75zm-4.9219-15.016c1.0195-1.3516 2.1484-2.3516 3.3906-3 1.2383-0.64453 2.6641-0.96875 4.2812-0.96875 2.8633 0 5.2109 1.1406 7.0469 3.4219 1.832 2.2734 2.75 5.1953 2.75 8.7656 0 3.5742-0.91797 6.4961-2.75 8.7656-1.8359 2.2734-4.1836 3.4062-7.0469 3.4062-1.6172 0-3.043-0.32031-4.2812-0.95312-1.2422-0.64453-2.3711-1.6445-3.3906-3v3.3594h-7.4219v-32.234h7.4219z"/>
  </symbol>
  <symbol id="g" overflow="visible">
   <path d="m0.51562-23.203h7.4219l6.2344 15.75 5.2969-15.75h7.4219l-9.7656 25.406c-0.98047 2.5703-2.1211 4.375-3.4219 5.4062-1.3047 1.0312-3.0273 1.5469-5.1719 1.5469h-4.2812v-4.875h2.3125c1.2578 0 2.1758-0.19922 2.75-0.59375 0.57031-0.39844 1.0156-1.1172 1.3281-2.1562l0.21875-0.64062z"/>
  </symbol>
  <symbol id="f" overflow="visible">
   <path d="m11.875-24.891v18.859h2.8594c3.25 0 5.7344-0.80469 7.4531-2.4219 1.7266-1.6133 2.5938-3.9609 2.5938-7.0469 0-3.0625-0.85938-5.3906-2.5781-6.9844-1.7109-1.6016-4.1992-2.4062-7.4688-2.4062zm-7.9844-6.0312h8.4062c4.6953 0 8.1953 0.33594 10.5 1 2.3008 0.66797 4.2695 1.8047 5.9062 3.4062 1.457 1.3984 2.5352 3.0078 3.2344 4.8281 0.70703 1.8242 1.0625 3.8867 1.0625 6.1875 0 2.3359-0.35547 4.418-1.0625 6.25-0.69922 1.8359-1.7773 3.4492-3.2344 4.8438-1.6562 1.5938-3.6484 2.7305-5.9688 3.4062-2.3125 0.66797-5.793 1-10.438 1h-8.4062z"/>
  </symbol>
  <symbol id="t" overflow="visible">
   <path d="m21.688-22.469v5.625c-1.5859-0.65625-3.1172-1.1484-4.5938-1.4844-1.4805-0.33203-2.875-0.5-4.1875-0.5-1.4062 0-2.4531 0.17969-3.1406 0.53125-0.6875 0.35547-1.0312 0.89844-1.0312 1.625 0 0.59375 0.25781 1.0547 0.78125 1.375 0.51953 0.3125 1.4453 0.54297 2.7812 0.6875l1.3125 0.1875c3.8008 0.49219 6.3516 1.2891 7.6562 2.3906 1.3125 1.1055 1.9688 2.8398 1.9688 5.2031 0 2.4688-0.91406 4.3242-2.7344 5.5625-1.8242 1.2422-4.543 1.8594-8.1562 1.8594-1.5312 0-3.1172-0.12109-4.75-0.35938-1.6367-0.23828-3.3203-0.59766-5.0469-1.0781v-5.6406c1.4766 0.71875 2.9922 1.2617 4.5469 1.625 1.5508 0.35547 3.1289 0.53125 4.7344 0.53125 1.4453 0 2.5352-0.19531 3.2656-0.59375 0.73828-0.40625 1.1094-1.0039 1.1094-1.7969 0-0.65625-0.25781-1.1445-0.76562-1.4688-0.5-0.32031-1.5078-0.57812-3.0156-0.76562l-1.2969-0.15625c-3.3047-0.41406-5.6172-1.1797-6.9375-2.2969-1.3242-1.125-1.9844-2.8281-1.9844-5.1094 0-2.457 0.83594-4.2812 2.5156-5.4688 1.6875-1.1875 4.2695-1.7812 7.75-1.7812 1.3633 0 2.7969 0.10547 4.2969 0.3125 1.5078 0.21094 3.1484 0.53906 4.9219 0.98438z"/>
  </symbol>
  <symbol id="d" overflow="visible">
   <path d="m3.5625-23.203h7.4219v23.203h-7.4219zm0-9.0312h7.4219v6.0469h-7.4219z"/>
  </symbol>
  <symbol id="s" overflow="visible">
   <path d="m19.344-3.9375c-1.0234 1.3555-2.1484 2.3516-3.375 2.9844-1.2305 0.63672-2.6523 0.95312-4.2656 0.95312-2.8359 0-5.1797-1.1133-7.0312-3.3438-1.8438-2.2266-2.7656-5.0703-2.7656-8.5312 0-3.457 0.92188-6.2969 2.7656-8.5156 1.8516-2.2188 4.1953-3.3281 7.0312-3.3281 1.6133 0 3.0352 0.32031 4.2656 0.95312 1.2266 0.63672 2.3516 1.6367 3.375 3v-3.4375h7.4531v20.859c0 3.7266-1.1797 6.5781-3.5312 8.5469-2.3555 1.9688-5.7656 2.9531-10.234 2.9531-1.4492 0-2.8516-0.10938-4.2031-0.32812-1.3555-0.21875-2.7148-0.55859-4.0781-1.0156v-5.7812c1.2891 0.75 2.5547 1.3047 3.7969 1.6719 1.25 0.36328 2.5 0.54688 3.75 0.54688 2.4375 0 4.2188-0.53125 5.3438-1.5938 1.1328-1.0625 1.7031-2.7266 1.7031-5zm-4.8906-14.438c-1.5312 0-2.7266 0.57031-3.5781 1.7031-0.85547 1.1367-1.2812 2.7344-1.2812 4.7969 0 2.1367 0.41016 3.75 1.2344 4.8438 0.83203 1.0938 2.0391 1.6406 3.625 1.6406 1.5508 0 2.7539-0.5625 3.6094-1.6875 0.85156-1.1328 1.2812-2.7344 1.2812-4.7969s-0.42969-3.6602-1.2812-4.7969c-0.85547-1.1328-2.0586-1.7031-3.6094-1.7031z"/>
  </symbol>
  <symbol id="r" overflow="visible">
   <path d="m26.891-14.125v14.125h-7.4688v-10.812c0-2-0.046875-3.3789-0.14062-4.1406-0.085938-0.75781-0.23438-1.3203-0.45312-1.6875-0.29297-0.47656-0.6875-0.85156-1.1875-1.125-0.49219-0.26953-1.0547-0.40625-1.6875-0.40625-1.5547 0-2.7734 0.60156-3.6562 1.7969-0.875 1.1992-1.3125 2.8555-1.3125 4.9688v11.406h-7.4219v-23.203h7.4219v3.4062c1.1133-1.3516 2.2969-2.3516 3.5469-3 1.2578-0.64453 2.6484-0.96875 4.1719-0.96875 2.6758 0 4.707 0.82422 6.0938 2.4688 1.3945 1.6484 2.0938 4.0391 2.0938 7.1719z"/>
  </symbol>
  <symbol id="q" overflow="visible">
   <path d="m22.312-22.469v6.0469c-1.0117-0.69531-2.0273-1.207-3.0469-1.5312-1.0117-0.33203-2.0625-0.5-3.1562-0.5-2.0625 0-3.6719 0.60547-4.8281 1.8125-1.1562 1.2109-1.7344 2.8984-1.7344 5.0625 0 2.168 0.57812 3.8555 1.7344 5.0625 1.1562 1.2109 2.7656 1.8125 4.8281 1.8125 1.1641 0 2.2695-0.17188 3.3125-0.51562 1.0391-0.34375 2.0039-0.85156 2.8906-1.5312v6.0625c-1.168 0.42969-2.3516 0.74219-3.5469 0.95312-1.1875 0.21875-2.3828 0.32812-3.5781 0.32812-4.1875 0-7.4648-1.0703-9.8281-3.2188-2.3555-2.1445-3.5312-5.1289-3.5312-8.9531 0-3.8203 1.1758-6.8047 3.5312-8.9531 2.3633-2.1562 5.6406-3.2344 9.8281-3.2344 1.207 0 2.3984 0.10938 3.5781 0.32812 1.1875 0.21875 2.3672 0.54297 3.5469 0.96875z"/>
  </symbol>
  <symbol id="p" overflow="visible">
   <path d="m3.5625-32.234h7.4219v32.234h-7.4219z"/>
  </symbol>
  <symbol id="o" overflow="visible">
   <path d="m18.828-32.234v4.875h-4.0938c-1.0547 0-1.7891 0.19531-2.2031 0.57812-0.41797 0.375-0.625 1.0312-0.625 1.9688v1.6094h6.3438v5.3125h-6.3438v17.891h-7.4062v-17.891h-3.6875v-5.3125h3.6875v-1.6094c0-2.5312 0.70312-4.3984 2.1094-5.6094 1.4062-1.207 3.5859-1.8125 6.5469-1.8125z"/>
  </symbol>
  <symbol id="n" overflow="visible">
   <path d="m26.891-14.125v14.125h-7.4688v-10.766c0-2.0312-0.046875-3.4258-0.14062-4.1875-0.085938-0.75781-0.23438-1.3203-0.45312-1.6875-0.29297-0.47656-0.6875-0.85156-1.1875-1.125-0.49219-0.26953-1.0547-0.40625-1.6875-0.40625-1.5547 0-2.7734 0.60156-3.6562 1.7969-0.875 1.1992-1.3125 2.8555-1.3125 4.9688v11.406h-7.4219v-32.234h7.4219v12.438c1.1133-1.3516 2.2969-2.3516 3.5469-3 1.2578-0.64453 2.6484-0.96875 4.1719-0.96875 2.6758 0 4.707 0.82422 6.0938 2.4688 1.3945 1.6484 2.0938 4.0391 2.0938 7.1719z"/>
  </symbol>
  <symbol id="m" overflow="visible">
   <path d="m3.8906-30.922h8.9062l11.25 21.203v-21.203h7.5625v30.922h-8.9062l-11.25-21.219v21.219h-7.5625z"/>
  </symbol>
  <symbol id="l" overflow="visible">
   <path d="m3.8906-30.922h13.234c3.9375 0 6.957 0.875 9.0625 2.625 2.1016 1.7422 3.1562 4.2266 3.1562 7.4531 0 3.25-1.0547 5.75-3.1562 7.5-2.1055 1.7422-5.125 2.6094-9.0625 2.6094h-5.25v10.734h-7.9844zm7.9844 5.7812v8.625h4.4062c1.5391 0 2.7344-0.375 3.5781-1.125s1.2656-1.8164 1.2656-3.2031c0-1.375-0.42188-2.4297-1.2656-3.1719-0.84375-0.75-2.0391-1.125-3.5781-1.125z"/>
  </symbol>
  <symbol id="k" overflow="visible">
   <path d="m3.5625-23.203h7.4219v22.781c0 3.1133-0.75 5.4883-2.25 7.125-1.4922 1.6328-3.6523 2.4531-6.4844 2.4531h-3.6562v-4.875h1.2812c1.4062 0 2.3672-0.32031 2.8906-0.95312 0.53125-0.63672 0.79688-1.8867 0.79688-3.75zm0-9.0312h7.4219v6.0469h-7.4219z"/>
  </symbol>
 </defs>
 <g>
  <path fill="#2776b6" d="m615.57 532.85h-70c41.574-13.32 71.781-52.266 71.781-98.168 0-48.109-33.09-88.496-77.723-99.781l0.003907-235.62c0-12.305-10.012-22.23-22.23-22.23h-100.63v-12.727c0-2.2891-1.8672-4.1562-4.1562-4.1562h-115.39c-2.2891 0-4.1562 1.8672-4.1562 4.1562v12.727h-42.934c-3.7344-8.1445-8.7383-15.613-14.68-22.23l13.238-13.238h12.641c2.2891 0 4.1562-1.8672 4.1562-4.1562 0-2.2891-1.8672-4.1562-4.1562-4.1562h-4.3281l1.8672-1.8672c1.6133-1.6133 1.6133-4.2422 0-5.8555-1.6133-1.6133-4.2422-1.6133-5.8555 0l-1.9531 1.9531v-4.5c0-2.2891-1.8672-4.1562-4.1562-4.1562-2.2891 0-4.1562 1.8672-4.1562 4.1562v12.727l-13.152 13.152c-15.867-14.68-37.078-23.758-60.328-23.758-49.129 0-89.09 39.965-89.09 89.09 0 49.129 39.965 89.09 89.09 89.09 0.33984 0 0.59375 0 0.93359-0.085938v315.64c0 5.3438 1.9531 10.098 5.0898 13.914l-32.41 0.003907v-36.656h5.8555c2.2891 0 4.1562-1.8672 4.1562-4.1562 0-2.2891-1.7852-4.0703-4.0742-4.0703h-10.012-0.085938-6.2773c2.207-5.3438 4.8359-9.1641 8.2305-14 5.1758-7.4648 11.711-16.715 19.43-35.805 0.16797-0.33984 12.898-32.074 4.75-48.023-2.1211-4.1562-5.5156-6.8711-9.8438-7.9766-21.465-5.3438-31.48 22.91-37.164 44.629-1.9531 7.6367-2.8867 15.359-3.1406 22.824-3.4805-6.7891-8.8242-13.746-15.102-14.508-3.5625-0.42578-8.6562 0.93359-12.559 9.5859-8.4844 18.836 6.1094 34.449 17.816 43.273h-9.4961c-2.2891 0-4.1562 1.8672-4.1562 4.1562 0 2.2891 1.8672 4.1562 4.1562 4.1562h5.8555v36.656h-16.801c-2.2891 0-4.1562 1.8672-4.1562 4.1562 0 2.2891 1.8672 4.1562 4.1562 4.1562l531.15 0.003906c2.2891 0 4.1562-1.8672 4.1562-4.1562 0.003906-2.293-1.8633-4.1602-4.1562-4.1602zm-489.66-104.11c6.8711-26.219 14.848-39.031 24.352-39.031 0.93359 0 1.8672 0.085938 2.8008 0.33984 2.0352 0.50781 3.4805 1.6953 4.4961 3.6484 4.4961 8.7383-0.25391 29.273-5.0898 41.066-7.4648 18.242-13.574 27.066-18.582 34.195-2.9688 4.2422-5.6836 8.1445-7.9766 13.066-0.085937-0.16797-0.16797-0.33984-0.16797-0.50781-2.6328-13.066-4.8359-33.516 0.16797-52.777zm-31.309 19.262c1.3594-2.9688 2.8867-4.75 3.9883-4.75h0.085938c3.9023 0.42578 10.605 11.879 12.047 18.922 1.1016 5.4297 4.3281 14.68 6.8711 21.723 0.16797 1.0195 0.42578 2.0352 0.59375 2.9688-8.0586-4.8398-31.816-20.621-23.586-38.863zm24.523 48.195h15.441v34.789l-25.031-0.003906v-34.789zm489.91-61.602c0 52.266-42.508 94.777-94.777 94.777-20.363 0-39.113-6.5352-54.641-17.48-0.50781-0.67969-1.1875-1.2734-2.0352-1.5273-23.078-17.309-38.184-44.801-38.184-75.855 0-52.266 42.508-94.777 94.777-94.777 6.6172 0 13.152 0.67969 19.43 2.0352 0.42578 0.25391 0.93359 0.33984 1.5273 0.42578 42.254 9.5898 73.902 47.348 73.902 92.402zm-407.87-237.23c31.141-12.047 53.965-40.98 56.848-75.602h10.777c2.1211 11.965 12.473 21.043 25.031 21.043h42.68c1.8672 8.3164 9.332 14.508 18.156 14.508 8.9102 0 16.289-6.1953 18.242-14.508h42.68c12.559 0 22.91-9.1641 25.031-21.043h63.211c2.7148 0 4.9219 2.207 4.9219 4.9219v205.16c-54.219 2.9688-97.492 47.855-97.492 102.84 0 29.867 12.812 56.762 33.176 75.602l-238.34-0.003906c-2.7148 0-4.9219-2.207-4.9219-4.9219zm91.891-83.918h-15.867c1.6953-7.2969 8.1445-12.812 15.867-13.152zm4.1562 8.2305h134.82c-1.9531 7.2969-8.5703 12.727-16.547 12.727h-46.328c-2.2891 0-4.1562 1.8672-4.1562 4.1562 0 5.6836-4.668 10.352-10.352 10.352-5.3438 0-9.6719-4.0742-10.266-9.25 0.085937-0.33984 0.16797-0.76172 0.16797-1.1875 0-2.2891-1.8672-4.1562-4.1562-4.1562h-46.582c-7.9766 0-14.594-5.4297-16.547-12.727h19.941zm119.55-21.383c7.5508 0.50781 13.746 5.9375 15.441 13.152h-15.441zm100.63-15.016c7.7227 0 13.914 6.2773 13.914 13.914v233.84c-4.668-0.76172-9.5039-1.2734-14.34-1.3594v-205.08c0-7.2969-5.9375-13.238-13.238-13.238h-63.129c-1.8672-11.793-11.711-20.871-23.844-21.465v-6.7031h100.64zm-216.02-16.801h107.08v44.969h-107.08zm-8.3164 16.801v6.6172c-12.387 0.42578-22.398 9.5859-24.266 21.465l-10.438 0.003906c-0.085937-9.8438-1.8672-19.262-4.8359-28.086zm-204.57 28.934c0-44.547 36.23-80.777 80.777-80.777 20.957 0 40.047 8.1445 54.473 21.297l-11.793 11.793c-11.371-10.184-26.305-16.375-42.68-16.375-35.383 0-64.062 28.762-64.062 64.062 0 35.297 28.762 64.062 64.062 64.062 35.297 0 64.062-28.762 64.062-64.062 0-15.953-5.9375-30.547-15.613-41.832l11.793-11.793c12.727 14.254 20.535 33.008 20.535 53.625 0 44.547-36.23 80.777-80.777 80.777-44.547-0.003906-80.777-36.234-80.777-80.777zm93.164 0c0 6.7891-5.5156 12.305-12.305 12.305-6.7891 0-12.305-5.5156-12.305-12.305 0-6.7891 5.5156-12.305 12.305-12.305 2.1211 0 4.0742 0.59375 5.7695 1.5273l-7.8906 7.8906c-1.6133 1.6133-1.6133 4.2422 0 5.8555 0.84766 0.84766 1.8672 1.1875 2.9688 1.1875s2.1211-0.42578 2.9688-1.1875l7.6367-7.6367c0.51172 1.4414 0.85156 3.0547 0.85156 4.668zm-0.50781-16.887c-3.3945-2.375-7.3828-3.7344-11.793-3.7344-11.371 0-20.617 9.25-20.617 20.617 0 11.371 9.25 20.617 20.617 20.617 11.371 0 20.617-9.25 20.617-20.617 0-3.9883-1.1875-7.6367-3.1406-10.777l8.9102-8.9102c4.0742 5.5156 6.6172 12.305 6.6172 19.684 0 18.156-14.762 33.008-33.008 33.008-18.242 0-33.008-14.762-33.008-33.008 0-18.242 14.762-33.008 33.008-33.008 7.8047 0 15.02 2.7148 20.617 7.2969zm14.68-14.68c-7.1289-6.0234-16.379-9.6719-26.473-9.6719-22.738 0-41.238 18.496-41.238 41.238 0 22.738 18.496 41.238 41.238 41.238 22.738 0 41.238-18.496 41.238-41.238 0-9.6719-3.3945-18.582-8.9922-25.625l10.352-10.352c8.2305 9.7578 13.152 22.23 13.152 35.891 0 30.801-25.031 55.832-55.832 55.832-30.801 0-55.832-25.031-55.832-55.832 0-30.801 25.031-55.832 55.832-55.832 14.086 0 26.98 5.2617 36.824 14zm-17.312 436.21v-315.98c4.9219-0.50781 9.6719-1.5273 14.34-2.8008v305.29c0 7.2969 5.9375 13.238 13.238 13.238h248.44c8.5703 6.1094 18.156 11.031 28.426 14.34h-290.44c-7.7188-0.085938-14-6.3633-14-14.086z"/>
  <path fill="#2776b6" d="m254.89 317.59c18.582 0 33.684-15.102 33.684-33.684 0-18.582-15.102-33.684-33.684-33.684s-33.684 15.102-33.684 33.684c0.082031 18.582 15.184 33.684 33.684 33.684zm0-59.051c14 0 25.371 11.371 25.371 25.371s-11.371 25.371-25.371 25.371-25.371-11.371-25.371-25.371c0-13.918 11.453-25.371 25.371-25.371z"/>
  <path fill="#2776b6" d="m307.49 272.62c0 2.2891 1.8672 4.1562 4.1562 4.1562h172.84c2.2891 0 4.1562-1.8672 4.1562-4.1562 0-2.2891-1.8672-4.1562-4.1562-4.1562h-172.84c-2.2891 0-4.1562 1.8672-4.1562 4.1562z"/>
  <path fill="#2776b6" d="m311.65 299.43h94.945c2.2891 0 4.1562-1.8672 4.1562-4.1562 0-2.2891-1.8672-4.1562-4.1562-4.1562l-94.945-0.003907c-2.2891 0-4.1562 1.8672-4.1562 4.1562 0 2.293 1.8672 4.1602 4.1562 4.1602z"/>
  <path fill="#2776b6" d="m247.84 295.61c0.76172 0.76172 1.8672 1.1875 2.9688 1.1875s2.1211-0.42578 2.9688-1.1875l14.426-14.426c1.6133-1.6133 1.6133-4.2422 0-5.8555s-4.2422-1.6133-5.8555 0l-11.539 11.539-1.2734-1.2734c-1.6133-1.6133-4.2422-1.6133-5.8555 0-1.6133 1.6133-1.6133 4.2422 0 5.8555z"/>
  <path fill="#2776b6" d="m254.89 401.93c18.582 0 33.684-15.102 33.684-33.684 0-18.582-15.102-33.684-33.684-33.684s-33.684 15.102-33.684 33.684c0.082031 18.582 15.184 33.684 33.684 33.684zm0-59.055c14 0 25.371 11.371 25.371 25.371s-11.371 25.371-25.371 25.371-25.371-11.371-25.371-25.371 11.453-25.371 25.371-25.371z"/>
  <path fill="#2776b6" d="m410.33 352.8h-98.68c-2.2891 0-4.1562 1.8672-4.1562 4.1562 0 2.2891 1.8672 4.1562 4.1562 4.1562h98.68c2.2891 0 4.1562-1.8672 4.1562-4.1562 0-2.2891-1.8672-4.1562-4.1562-4.1562z"/>
  <path fill="#2776b6" d="m311.65 383.68h58.375c2.2891 0 4.1562-1.8672 4.1562-4.1562 0-2.2891-1.8672-4.1562-4.1562-4.1562h-58.375c-2.2891 0-4.1562 1.8672-4.1562 4.1562 0 2.375 1.8672 4.1562 4.1562 4.1562z"/>
  <path fill="#2776b6" d="m247.84 379.95c0.76172 0.76172 1.8672 1.1875 2.9688 1.1875s2.1211-0.42578 2.9688-1.1875l14.426-14.426c1.6133-1.6133 1.6133-4.2422 0-5.8555s-4.2422-1.6133-5.8555 0l-11.539 11.539-1.2734-1.2734c-1.6133-1.6133-4.2422-1.6133-5.8555 0-1.6133 1.6133-1.6133 4.2422 0 5.8555z"/>
  <path fill="#2776b6" d="m254.89 486.27c18.582 0 33.684-15.102 33.684-33.684s-15.102-33.684-33.684-33.684-33.684 15.102-33.684 33.684c-0.003906 18.582 15.184 33.684 33.684 33.684zm0-59.055c14 0 25.371 11.371 25.371 25.371s-11.371 25.371-25.371 25.371-25.371-11.371-25.371-25.371 11.453-25.371 25.371-25.371z"/>
  <path fill="#2776b6" d="m382.84 437.14h-71.273c-2.2891 0-4.1562 1.8672-4.1562 4.1562s1.8672 4.1562 4.1562 4.1562h71.273c2.2891 0 4.1562-1.8672 4.1562-4.1562s-1.8633-4.1562-4.1562-4.1562z"/>
  <path fill="#2776b6" d="m370.02 459.71h-58.375c-2.2891 0-4.1562 1.8672-4.1562 4.1562 0 2.2891 1.8672 4.1562 4.1562 4.1562h58.375c2.2891 0 4.1562-1.8672 4.1562-4.1562 0.003906-2.293-1.8633-4.1562-4.1562-4.1562z"/>
  <path fill="#2776b6" d="m247.84 464.29c0.76172 0.76172 1.8672 1.1875 2.9688 1.1875s2.1211-0.42578 2.9688-1.1875l14.426-14.426c1.6133-1.6133 1.6133-4.2422 0-5.8555-1.6133-1.6133-4.2422-1.6133-5.8555 0l-11.539 11.539-1.2734-1.2734c-1.6133-1.6133-4.2422-1.6133-5.8555 0-1.6133 1.6133-1.6133 4.2422 0 5.8555z"/>
  <path fill="#2776b6" d="m266 233.33h177.5c2.2891 0 4.1562-1.8672 4.1562-4.1562v-43.613c0-2.2891-1.8672-4.1562-4.1562-4.1562h-177.5c-2.2891 0-4.1562 1.8672-4.1562 4.1562v43.613c0 2.2891 1.8672 4.1562 4.1562 4.1562zm4.1562-43.609h169.19v35.297h-169.19z"/>
  <path fill="#2776b6" d="m514.27 365.7c2.2891 0 4.1562-1.8672 4.1562-4.1562v-6.4492c0-2.2891-1.8672-4.1562-4.1562-4.1562s-4.1562 1.8672-4.1562 4.1562v6.4492c0 2.293 1.8672 4.1562 4.1562 4.1562z"/>
  <path fill="#2776b6" d="m487.71 359.59c-0.84766-2.1211-3.3086-3.1406-5.4297-2.207-2.1211 0.84766-3.1406 3.3086-2.207 5.4297l1.1875 2.9688c0.67969 1.6133 2.207 2.5469 3.8164 2.5469 0.50781 0 1.1016-0.085938 1.6133-0.33984 2.1211-0.84766 3.1406-3.3086 2.207-5.4297z"/>
  <path fill="#2776b6" d="m445.37 401.59-2.9688-1.1875c-2.1211-0.84766-4.582 0.16797-5.4297 2.207-0.84766 2.1211 0.085938 4.582 2.207 5.4297l2.9688 1.1875c0.50781 0.25391 1.0195 0.33984 1.6133 0.33984 1.6133 0 3.1406-0.93359 3.8164-2.5469 0.92969-2.1172-0.085937-4.4961-2.207-5.4297z"/>
  <path fill="#2776b6" d="m442.14 434.59c0-2.2891-1.8672-4.1562-4.1562-4.1562h-3.2227c-2.2891 0-4.1562 1.8672-4.1562 4.1562s1.8672 4.1562 4.1562 4.1562h3.2227c2.2891 0 4.1562-1.8633 4.1562-4.1562z"/>
  <path fill="#2776b6" d="m442.23 459.96-2.9688 1.1875c-2.1211 0.84766-3.1406 3.3086-2.207 5.4297 0.67969 1.6133 2.207 2.5469 3.8164 2.5469 0.50781 0 1.1016-0.085937 1.6133-0.33984l2.9688-1.1875c2.1211-0.84766 3.1406-3.3086 2.207-5.4297-0.93359-2.0391-3.3086-3.0586-5.4297-2.207z"/>
  <path fill="#2776b6" d="m457.42 485.59-2.2891 2.2891c-1.6133 1.6133-1.6133 4.2422 0 5.8555 0.84766 0.84766 1.8672 1.1875 2.9688 1.1875 1.1016 0 2.1211-0.42578 2.9688-1.1875l2.2891-2.2891c1.6133-1.6133 1.6133-4.2422 0-5.8555-1.6953-1.6094-4.3242-1.6094-5.9375 0z"/>
  <path fill="#2776b6" d="m486.69 501.29c-2.1211-0.84766-4.582 0.16797-5.4297 2.207l-1.1875 2.9688c-0.84766 2.1211 0.16797 4.582 2.207 5.4297 0.50781 0.25391 1.0195 0.33984 1.6133 0.33984 1.6133 0 3.1406-0.93359 3.8164-2.5469l1.1875-2.9688c0.84766-2.1211-0.085938-4.582-2.207-5.4297z"/>
  <path fill="#2776b6" d="m514.27 506.71c-2.2891 0-4.1562 1.8672-4.1562 4.1562v3.2227c0 2.2891 1.8672 4.1562 4.1562 4.1562s4.1562-1.8672 4.1562-4.1562v-3.2227c0.003906-2.2891-1.8633-4.1562-4.1562-4.1562z"/>
  <path fill="#2776b6" d="m547.27 503.49c-0.84766-2.1211-3.3086-3.1406-5.4297-2.207-2.1211 0.84766-3.1406 3.3086-2.207 5.4297l1.1875 2.9688c0.67969 1.6133 2.207 2.5469 3.8164 2.5469 0.50781 0 1.1016-0.085938 1.6133-0.33984 2.1211-0.84766 3.1406-3.3086 2.207-5.4297z"/>
  <path fill="#2776b6" d="m573.41 487.88-4.5781-4.5781c-1.6133-1.6133-4.2422-1.6133-5.8555 0-1.6133 1.6133-1.6133 4.2422 0 5.8555l4.5781 4.5781c0.42578 0.42578 0.84766 0.67969 1.3594 0.93359 0.50781 0.16797 1.0195 0.33984 1.5273 0.33984 1.1016 0 2.1211-0.42578 2.9688-1.1875 0.84766-0.84766 1.1875-1.8672 1.1875-2.9688 0-1.1055-0.42578-2.125-1.1875-2.9727z"/>
  <path fill="#2776b6" d="m583.16 467.68 2.9688 1.1875c0.50781 0.25391 1.0195 0.33984 1.6133 0.33984 1.6133 0 3.1406-0.93359 3.8164-2.5469 0.84766-2.1211-0.085938-4.582-2.207-5.4297l-2.9688-1.1875c-2.1211-0.84766-4.582 0.085937-5.4297 2.207-0.93359 2.1211 0.085938 4.4961 2.207 5.4297z"/>
  <path fill="#2776b6" d="m586.39 434.59c0 2.2891 1.8672 4.1562 4.1562 4.1562h3.2227c2.2891 0 4.1562-1.8672 4.1562-4.1562s-1.8672-4.1562-4.1562-4.1562h-3.2227c-2.2891 0-4.1562 1.8672-4.1562 4.1562z"/>
  <path fill="#2776b6" d="m584.69 409.56c0.50781 0 1.1016-0.085938 1.6133-0.33984l2.9688-1.1875c2.1211-0.84766 3.1406-3.3086 2.207-5.4297-0.84766-2.1211-3.3086-3.1406-5.4297-2.207l-2.9688 1.1875c-2.1211 0.84766-3.1406 3.3086-2.207 5.4297 0.67578 1.6133 2.2031 2.5469 3.8164 2.5469z"/>
  <path fill="#2776b6" d="m541.84 367.99c0.50781 0.25391 1.0195 0.33984 1.6133 0.33984 1.6133 0 3.1406-0.93359 3.8164-2.5469l1.1875-2.9688c0.84766-2.1211-0.085938-4.582-2.207-5.4297-2.1211-0.84766-4.582 0.085938-5.4297 2.207l-1.1875 2.9688c-0.93359 2.1211 0.085937 4.582 2.207 5.4297z"/>
  <path fill="#2776b6" d="m460.98 375.45c-0.42578-0.42578-0.84766-0.67969-1.3594-0.93359-1.0195-0.42578-2.1211-0.42578-3.1406 0-0.50781 0.16797-0.93359 0.50781-1.3594 0.93359-0.84766 0.84766-1.1875 1.8672-1.1875 2.9688s0.42578 2.1211 1.1875 2.9688l4.5781 4.5781c0.84766 0.84766 1.8672 1.1875 2.9688 1.1875 1.1016 0 2.1211-0.42578 2.9688-1.1875 1.6133-1.6133 1.6133-4.2422 0-5.8555z"/>
  <path fill="#2776b6" d="m565.94 387.08c1.1016 0 2.1211-0.42578 2.9688-1.1875l4.5781-4.5781c0.84766-0.84766 1.1875-1.8672 1.1875-2.9688s-0.42578-2.1211-1.1875-2.9688c-0.42578-0.42578-0.84766-0.67969-1.3594-0.93359-1.0195-0.42578-2.1211-0.42578-3.1406 0-0.50781 0.16797-0.93359 0.50781-1.3594 0.93359l-4.5781 4.5781c-1.6133 1.6133-1.6133 4.2422 0 5.8555 0.76953 0.92969 1.7891 1.2695 2.8906 1.2695z"/>
  <path fill="#2776b6" d="m518.43 414.48v-33.77c0-2.2891-1.8672-4.1562-4.1562-4.1562-2.2891 0-4.1562 1.8672-4.1562 4.1562v33.77c-9.332 1.9531-16.461 10.266-16.461 20.109 0 11.371 9.25 20.535 20.535 20.535 9.9258 0 18.242-7.043 20.109-16.461h23.758c2.2891 0 4.1562-1.8672 4.1562-4.1562 0-2.2891-1.8672-4.1562-4.1562-4.1562h-23.758c-1.5352-7.8945-7.8984-14.258-15.871-15.871zm-4.1602 32.414c-6.7891 0-12.305-5.5156-12.305-12.305s5.5156-12.305 12.305-12.305 12.305 5.5156 12.305 12.305-5.5156 12.305-12.305 12.305z"/>
  <path fill="#2776b6" d="m133.64 453.52 4.8359-17.309 5.1758-17.223c1.7812-5.7695 3.6484-11.539 5.2617-17.734-4.582 4.4961-8.1445 9.6719-11.199 15.188-3.0547 5.5156-5.4297 11.453-7.2109 17.48-1.6953 6.0234-2.8867 12.305-3.2227 18.582-0.42578 6.2773-0.16797 12.641 1.3594 18.836 1.9453-6.1133 3.4727-11.965 5-17.82z"/>
  
 </g>
</svg>
